<svg width="92" height="35" viewBox="0 0 92 35" fill="none" xmlns="http://www.w3.org/2000/svg">
<g clip-path="url(#clip0_74_294)">
<path d="M2.45682 34.6141H1.92656C0.193334 34.5655 0 34.4693 0 33.6014V1.01277C0 0.144843 0.0972326 0 1.68574 0H2.79374C5.05722 0 4.86501 0.482056 5.39414 1.73586C7.03239 5.64096 8.71813 10.0768 10.5011 14.3191C10.8866 15.2346 11.0788 15.668 11.2722 15.668C11.513 15.668 11.7052 15.0897 12.2355 14.0769C13.8726 10.9436 17.1491 5.49612 18.7387 2.21791C19.3165 1.01277 19.1718 0.820401 19.7506 0.723084C20.2323 0.626899 21.3391 0.241028 21.918 0.241028C22.6405 0.241028 22.4957 0.626899 22.593 1.49483L22.5444 31.2397C22.5444 31.5769 22.593 31.818 22.593 32.0115C22.593 32.6384 22.2549 32.7346 20.8586 32.7832L19.1254 32.8794H18.7873C17.1502 32.8794 17.1016 32.3974 17.1016 30.7102C17.1988 28.3961 17.1988 26.082 17.1988 23.7679C17.1988 21.0679 17.1502 18.3204 17.0055 15.5729C17.0055 14.3202 17.0055 13.8371 16.9094 13.8371C16.7647 13.8371 16.5239 14.5601 15.9936 15.6204C15.0292 17.6935 13.5854 20.4897 12.1405 22.8524C11.6102 23.7203 11.418 24.2499 11.1761 24.2499C10.9839 24.2499 10.6944 23.9127 10.3089 22.9961L5.78081 12.1974C5.39527 11.3781 5.20307 10.8485 5.05835 10.8485C5.00973 10.8485 5.00973 10.9447 5.00973 11.2344V12.4871C5.05835 14.0781 5.05835 15.6204 5.05835 17.2114C5.05835 22.419 4.91363 27.673 4.91363 32.9756V33.3615C4.91363 34.6153 4.48061 34.6141 2.45682 34.6141Z" fill="#231F20"/>
<path d="M39.8347 2.31409C40.7493 2.31409 40.9902 2.31409 40.9902 2.69996C40.9902 2.79614 40.9415 2.94099 40.9415 3.13449L40.7968 6.12301C40.6521 7.0396 40.7482 7.0396 39.3519 7.0396H31.934C31.1143 7.0396 30.9707 7.18331 30.9707 7.56918V8.0999L30.9221 13.1626V13.5485C30.9221 13.9819 30.9707 14.0305 31.934 14.0305H38.9189C39.69 14.0305 39.8347 14.0781 39.8347 14.8985V17.2126C39.8347 18.4177 39.8347 18.4664 38.245 18.5139C37.3779 18.5626 36.5107 18.5626 35.4513 18.5626H31.0679C30.1521 18.5626 30.0074 18.6101 30.0074 19.5267L29.9588 26.4203C29.9588 27.6741 29.9588 27.6254 31.5484 27.6741L40.4113 28.06C41.6629 28.1075 41.7115 28.1075 41.7115 29.1203V32.3985C41.7115 33.4112 41.7115 33.4599 40.3627 33.4599H26.2504C24.9502 33.4599 25.1435 33.3637 25.0949 32.4471L24.9502 3.13675C24.9502 2.26883 25.0474 2.17151 25.7213 2.17151H26.6371L39.8358 2.31635L39.8347 2.31409Z" fill="#231F20"/>
<path d="M50.192 33.65C49.0365 33.65 47.0127 33.6025 45.76 33.6025C44.0742 33.5538 43.7373 33.2166 43.7373 32.3973V2.16925C43.7373 1.54235 43.7859 1.44616 44.8442 1.30132C46.5785 1.01163 48.409 0.86792 50.1433 0.86792C53.1304 0.86792 55.5375 1.34998 57.273 2.31409C61.8972 4.9654 61.9446 10.6539 61.9446 16.15V19.332C61.9446 25.6949 60.2114 33.65 50.192 33.65ZM56.5019 16.2949C56.5019 10.4129 55.6336 4.48334 52.9857 4.48334C52.1185 4.48334 50.4328 4.57953 49.7589 4.77303C49.0365 4.9654 48.9392 5.06271 48.9392 5.7858V7.473C48.9392 11.9077 48.8431 17.5487 48.8431 21.9358C48.8431 24.8282 48.8918 27.1423 49.0365 28.155C49.855 28.1075 52.6963 28.0102 53.9976 27.914C55.1045 27.8178 55.1045 27.7216 55.3939 26.9974C55.9728 25.3102 56.5019 20.8269 56.5019 16.2949Z" fill="#231F20"/>
<path d="M68.1096 2.41027C69.074 2.4578 69.1701 2.50646 69.1701 3.0847V3.32573L69.2176 31.6731V32.1552C69.2176 32.5886 69.074 32.6372 68.2543 32.7334L65.0275 33.1668H64.5459C64.0642 33.1668 64.0156 33.022 64.0156 32.5886V3.56789C64.0156 2.50646 64.0156 2.31409 65.0275 2.31409H65.75L68.1096 2.41027Z" fill="#231F20"/>
<path d="M88.2913 34.9027C87.9058 34.9502 87.6164 34.9989 87.4242 34.9989C86.9425 34.9989 86.8453 34.8065 86.7492 34.0823L84.8226 22.9463C84.7265 22.0784 84.6304 21.9335 83.6197 21.9335H83.2341L78.9955 22.0297C77.8875 22.0297 77.9349 22.1259 77.8875 22.8977C77.598 25.9835 77.2611 29.0207 77.0203 32.1054C76.9717 33.1657 77.0203 33.3581 75.5279 33.4067L72.0603 33.5029H71.7222C71.0959 33.5029 70.9512 33.4067 70.9512 33.1657C70.9512 33.0208 70.9512 32.8285 70.9998 32.4913C72.6369 22.6566 74.3713 11.5682 76.1056 2.02327C76.2017 1.204 76.3951 1.10668 77.4058 1.10668H78.6099C80.2945 1.10668 83.6197 1.0105 85.1607 1.0105C87.5203 1.0105 87.7136 1.05916 87.9058 2.60151C88.4847 7.13239 89.0613 11.7606 89.5429 16.0516C90.1218 21.3553 91.2287 28.1041 91.9523 33.5516C91.9997 33.8412 91.9997 34.0336 91.9997 34.1785C91.9997 34.5157 91.8075 34.5643 91.0365 34.6605L88.2902 34.9015L88.2913 34.9027ZM78.7535 16.15V16.5359C78.7535 16.7282 78.8021 16.8244 79.381 16.8244H83.3302C83.6513 16.8244 83.8119 16.7603 83.8119 16.6321V16.15L82.9447 6.60507C82.8961 5.97817 82.3658 5.92951 81.9803 5.92951H81.1131C80.6314 5.92951 80.2934 5.97704 80.1973 6.46022C79.4748 9.44875 79.0916 12.727 78.7535 16.15Z" fill="#231F20"/>
</g>
<defs>
<clipPath id="clip0_74_294">
<rect width="92" height="35" fill="white"/>
</clipPath>
</defs>
</svg>
