<svg width="252" height="35" viewBox="0 0 252 35" fill="none" xmlns="http://www.w3.org/2000/svg">
<g clip-path="url(#clip0_83_347)">
<path d="M12.0193 32.7288V33.0255C12.0193 33.7173 11.9705 33.7659 10.9303 33.8158H9.54647C8.35999 33.8158 8.16146 33.7659 7.07366 33.6674C6.08337 33.5689 5.93593 33.5191 5.93593 32.6802V28.9281C5.93593 23.8436 6.13445 18.2167 6.13445 12.5875C6.13445 11.0081 6.13445 9.42757 6.08453 7.84819C6.08453 7.15758 6.08453 7.10775 5.14416 7.10775L1.58353 7.05793C0.148601 7.05909 0.0499208 6.96059 0.0499208 6.02201V5.77519C0.0499208 4.64078 0 3.40555 0 2.22131C0 1.18423 0.347123 1.18423 1.38501 1.18423C7.51714 1.18423 11.2275 1.1344 17.4096 0.986084C17.9053 0.986084 18.004 1.03591 18.004 1.33255V1.52954L17.9541 4.73927C17.9541 5.33139 17.8055 5.38122 17.1623 5.38122H15.4313L13.0084 5.43104C11.8707 5.43104 11.8219 5.47971 11.8219 6.22131C11.8219 15.2549 12.0193 23.6454 12.0193 32.7288Z" fill="#231F20"/>
<path d="M21.6142 34.6547H20.6738C19.6835 34.6547 19.8821 34.3581 19.7822 33.4206L19.8321 2.31981C19.8821 1.57937 19.7335 1.43105 20.4753 1.43105C21.8104 1.43105 23.0967 1.48088 24.3831 1.52955C25.4221 1.57937 25.4221 1.67787 25.5196 2.41947C25.7669 6.66396 26.0142 12.0452 26.1628 14.3163C26.2127 15.2051 26.2127 15.3534 26.6086 15.3534C27.7452 15.3534 29.576 15.3048 30.7625 15.3048C32.1962 15.3048 32.0976 15.2051 32.1962 14.2677C32.5921 9.92352 32.5921 5.82619 32.692 0.938586C32.692 0.378525 33.0708 0.0984936 33.8285 0.0984936L37.2406 0C38.3771 0 38.6743 0.196987 38.6743 0.74044V1.48204L38.8729 33.1251C38.8729 34.1622 38.8729 34.2121 37.5865 34.2607C36.2027 34.3592 34.8664 34.5075 33.4327 34.5075C32.7895 34.5075 32.6908 34.409 32.6908 33.7173V20.9815C32.6908 20.2399 32.0964 20.3384 31.4544 20.2897C31.1084 20.2897 30.86 20.2399 30.3178 20.2399C28.8341 20.2399 27.0532 20.3384 25.4209 20.438C24.6292 20.4867 24.4806 20.5365 24.4806 20.9316V21.3268L24.2821 33.8158C24.2821 34.3592 24.1834 34.4577 23.243 34.5562C22.6498 34.606 22.1064 34.6559 21.6119 34.6559L21.6142 34.6547Z" fill="#231F20"/>
<path d="M56.6325 1.97449C57.5717 1.97449 57.819 1.97449 57.819 2.36963C57.819 2.46812 57.7691 2.61644 57.7691 2.81459L57.6205 5.87484C57.4719 6.81343 57.5706 6.81343 56.1368 6.81343H48.5198C47.6781 6.81343 47.5307 6.96175 47.5307 7.35688V7.90033L47.4808 13.0846V13.4797C47.4808 13.9235 47.5307 13.9733 48.5198 13.9733H55.6921C56.4839 13.9733 56.6325 14.022 56.6325 14.8621V17.2317C56.6325 18.4658 56.6325 18.5145 55.0002 18.5643C54.1098 18.6141 53.2193 18.6141 52.1315 18.6141H47.6305C46.6902 18.6141 46.5416 18.6628 46.5416 19.6014L46.4916 26.6605C46.4916 27.9444 46.4916 27.8945 48.1239 27.9444L57.2246 28.3395C58.5098 28.3882 58.5597 28.3882 58.5597 29.4252V32.7821C58.5597 33.8192 58.5597 33.869 57.1747 33.869H42.6837C41.3486 33.869 41.5472 33.7694 41.4972 32.832L41.3486 2.81806C41.3486 1.92814 41.4485 1.82965 42.1404 1.82965H43.0808L56.6337 1.97797L56.6325 1.97449Z" fill="#231F20"/>
<path d="M77.01 28.1877C77.2074 29.175 78.0491 29.372 78.9883 29.372C79.8288 29.372 80.768 29.3221 81.7084 29.3221C83.1921 29.3221 83.2908 29.0753 83.2908 26.7555V20.5354C83.2908 19.9421 83.3894 19.8436 84.5272 19.8436H88.8296C89.9674 19.8436 90.1647 19.8934 90.1647 20.4369C90.1647 23.7926 89.9175 26.854 88.3351 29.9154C86.5542 33.124 83.884 34.9015 79.4318 34.9015C72.5079 34.9015 70.2324 26.6084 70.2324 21.9177V17.5249C70.2324 11.3048 72.2107 0.246826 81.2127 0.246826C87.1974 0.246826 89.5715 5.03593 89.5715 9.57707C89.5715 9.87371 89.5216 10.1703 89.5216 10.4658C89.4229 11.1089 89.6702 11.3059 88.7298 11.4542C87.8394 11.6026 86.257 11.7995 85.1193 11.9479C84.526 11.9977 84.1789 12.146 83.9827 12.146C83.6855 12.146 83.6855 11.8992 83.6367 11.1089V9.87487C83.6367 7.55505 83.4382 4.49364 80.9654 4.49364C76.4145 4.49364 76.3158 12.4403 76.3158 18.2179V18.8598C76.3158 22.4624 76.5631 25.6223 77.0089 28.19L77.01 28.1877Z" fill="#231F20"/>
<path d="M102.482 35C93.1339 35 91.8975 25.1263 91.8975 19.1043C91.8975 11.9456 92.4919 0.345337 103.62 0.345337C112.72 0.345337 113.463 10.1205 113.463 18.3639C113.463 25.9676 113.115 35 102.482 35ZM98.2281 27.9409C98.7726 29.569 99.7606 29.8158 101.295 29.8158C101.889 29.8158 102.482 29.8158 103.224 29.7671C106.241 29.569 106.439 28.6802 106.587 27.1507C106.883 23.3986 107.032 20.7324 107.032 17.7208C107.032 15.3025 106.983 12.2411 106.784 9.03248C106.636 6.66283 106.438 4.63966 103.322 4.63966H103.224C100.552 4.63966 99.713 4.63966 98.8713 7.4531C97.8322 10.9583 97.4874 17.1785 97.4874 19.0058C97.4874 20.2886 97.6349 26.4102 98.2281 27.9409Z" fill="#231F20"/>
<path d="M115.836 2.073C115.836 1.38123 115.836 1.23407 116.529 1.23407C117.814 1.23407 119.201 1.33256 120.536 1.38123C121.376 1.38123 121.525 1.43106 121.525 1.92468V2.27115L121.08 26.657V27.0521C121.08 27.6454 121.277 27.6953 122.315 27.7439C124.591 27.8424 126.322 27.8922 128.003 27.8922C128.497 27.8922 128.795 27.9907 128.845 28.6327L129.042 32.4832V32.8297C129.042 33.372 128.449 33.4716 127.46 33.5203L116.728 33.6686C116.232 33.6686 115.688 33.6199 115.688 33.2735V32.9282L115.836 2.073Z" fill="#231F20"/>
<path d="M131.02 2.073C131.02 1.38123 131.02 1.23407 131.713 1.23407C132.998 1.23407 134.384 1.33256 135.719 1.38123C136.56 1.38123 136.708 1.43106 136.708 1.92468V2.27115L136.264 26.657V27.0521C136.264 27.6454 136.461 27.6953 137.499 27.7439C139.774 27.8424 141.505 27.8922 143.186 27.8922C143.681 27.8922 143.978 27.9907 144.028 28.6327L144.225 32.4832V32.8297C144.225 33.372 143.632 33.4716 142.643 33.5203L131.911 33.6686C131.416 33.6686 130.871 33.6199 130.871 33.2735V32.9282L131.02 2.073Z" fill="#231F20"/>
<path d="M160.945 1.97449C161.884 1.97449 162.132 1.97449 162.132 2.36963C162.132 2.46812 162.082 2.61644 162.082 2.81459L161.933 5.87484C161.784 6.81343 161.883 6.81343 160.449 6.81343H152.832C151.991 6.81343 151.843 6.96175 151.843 7.35688V7.90033L151.793 13.0846V13.4797C151.793 13.9235 151.843 13.9733 152.832 13.9733H160.005C160.796 13.9733 160.945 14.022 160.945 14.8621V17.2317C160.945 18.4658 160.945 18.5145 159.313 18.5643C158.422 18.6141 157.532 18.6141 156.444 18.6141H151.943C151.003 18.6141 150.854 18.6628 150.854 19.6014L150.804 26.6605C150.804 27.9444 150.804 27.8945 152.436 27.9444L161.537 28.3395C162.822 28.3882 162.872 28.3882 162.872 29.4252V32.7821C162.872 33.8192 162.872 33.869 161.487 33.869H146.996C145.661 33.869 145.86 33.7694 145.81 32.832L145.661 2.81806C145.661 1.92814 145.761 1.82965 146.453 1.82965H147.393L160.946 1.97797L160.945 1.97449Z" fill="#231F20"/>
<path d="M170.392 28.1877C170.589 29.175 171.431 29.372 172.37 29.372C173.211 29.372 174.15 29.3221 175.09 29.3221C176.574 29.3221 176.673 29.0753 176.673 26.7555V20.5354C176.673 19.9421 176.771 19.8436 177.909 19.8436H182.211C183.349 19.8436 183.547 19.8934 183.547 20.4369C183.547 23.7926 183.299 26.854 181.717 29.9154C179.936 33.124 177.266 34.9015 172.814 34.9015C165.89 34.9015 163.614 26.6084 163.614 21.9177V17.5249C163.614 11.3048 165.593 0.246826 174.594 0.246826C180.579 0.246826 182.953 5.03593 182.953 9.57707C182.953 9.87371 182.903 10.1703 182.903 10.4658C182.805 11.1089 183.052 11.3059 182.112 11.4542C181.221 11.6026 179.639 11.7995 178.501 11.9479C177.908 11.9977 177.561 12.146 177.365 12.146C177.067 12.146 177.067 11.8992 177.019 11.1089V9.87487C177.019 7.55505 176.82 4.49364 174.347 4.49364C169.796 4.49364 169.698 12.4403 169.698 18.2179V18.8598C169.698 22.4624 169.945 25.6223 170.391 28.19L170.392 28.1877Z" fill="#231F20"/>
<path d="M196.408 32.7288V33.0255C196.408 33.7173 196.359 33.7659 195.319 33.8157H193.935C192.748 33.8157 192.55 33.7659 191.462 33.6674C190.472 33.5689 190.324 33.5191 190.324 32.6802V28.9281C190.324 23.8436 190.523 18.2167 190.523 12.5875C190.523 11.0081 190.523 9.42757 190.473 7.84819C190.473 7.15758 190.473 7.10775 189.533 7.10775L185.972 7.05793C184.538 7.05793 184.44 6.95943 184.44 6.02085V5.77403C184.44 4.63962 184.39 3.40439 184.39 2.22015C184.39 1.18307 184.737 1.18307 185.775 1.18307C191.907 1.18307 195.617 1.13324 201.799 0.984924C202.295 0.984924 202.394 1.03475 202.394 1.33139V1.52838L202.344 4.73811C202.344 5.33023 202.195 5.38006 201.552 5.38006H199.821L197.398 5.42988C196.26 5.42988 196.212 5.47855 196.212 6.22015C196.212 15.2538 196.408 23.6454 196.408 32.7288Z" fill="#231F20"/>
<path d="M208.378 2.07298C209.368 2.12281 209.467 2.17148 209.467 2.76475V3.01157L209.515 32.0394V32.533C209.515 32.9768 209.368 33.0266 208.526 33.1251L205.213 33.5701H204.718C204.224 33.5701 204.174 33.4218 204.174 32.9768V3.25838C204.174 2.17148 204.174 1.97565 205.213 1.97565H205.955L208.379 2.07414L208.378 2.07298Z" fill="#231F20"/>
<path d="M225.441 13.2294C226.282 9.57707 226.481 6.3685 226.875 3.06143C226.924 2.46815 227.123 2.51798 227.815 2.41948C229.397 2.17151 231.079 2.07302 232.613 1.9247H232.959C233.256 1.9247 233.355 1.97452 233.355 2.12284C233.355 2.22134 233.355 2.36966 233.256 2.51798C231.031 12.6373 228.459 23.7451 227.321 31.8911V32.5817C227.321 34.0139 225.146 33.8656 224.008 33.9143C222.277 33.9641 221.981 34.0139 220.596 34.1124H220.447C219.261 34.1124 219.063 32.7799 218.865 31.7428L211.101 2.41948C211.101 2.31983 211.052 2.31983 211.052 2.22134C211.052 1.87603 211.299 1.62922 211.844 1.4809C213.426 1.08576 214.761 0.986111 216.295 0.83895C216.592 0.789124 216.839 0.789124 216.938 0.789124C217.284 0.789124 217.284 0.887617 217.432 1.38124C219.015 9.08229 220.351 17.6732 222.478 25.1263L222.725 26.5087C222.775 26.5087 223.022 25.2248 223.071 24.9293C224.061 22.0162 224.852 16.6362 225.445 13.2283L225.441 13.2294Z" fill="#231F20"/>
<path d="M250.072 1.97449C251.012 1.97449 251.258 1.97449 251.258 2.36963C251.258 2.46812 251.208 2.61644 251.208 2.81459L251.061 5.87484C250.912 6.81343 251.011 6.81343 249.577 6.81343H241.96C241.119 6.81343 240.97 6.96175 240.97 7.35688V7.90033L240.92 13.0846V13.4797C240.92 13.9235 240.97 13.9733 241.96 13.9733H249.131C249.923 13.9733 250.072 14.022 250.072 14.8621V17.2317C250.072 18.4658 250.072 18.5145 248.439 18.5643C247.549 18.6141 246.66 18.6141 245.571 18.6141H241.07C240.129 18.6141 239.982 18.6628 239.982 19.6014L239.932 26.6605C239.932 27.9444 239.932 27.8945 241.564 27.9444L250.665 28.3395C251.95 28.3882 251.999 28.3882 251.999 29.4252V32.7821C251.999 33.8192 251.999 33.869 250.615 33.869H236.124C234.789 33.869 234.986 33.7694 234.938 32.832L234.789 2.81806C234.789 1.92814 234.888 1.82965 235.581 1.82965H236.521L250.073 1.97797L250.072 1.97449Z" fill="#231F20"/>
</g>
<defs>
<clipPath id="clip0_83_347">
<rect width="252" height="35" fill="white"/>
</clipPath>
</defs>
</svg>
