<svg width="179" height="35" viewBox="0 0 179 35" fill="none" xmlns="http://www.w3.org/2000/svg">
<g clip-path="url(#clip0_83_337)">
<path d="M10.5903 34.7029C1.2371 34.7029 0 24.8167 0 18.7851C0 11.6175 0.594738 0 11.7287 0C20.8344 0 21.5767 9.78881 21.5767 18.0436C21.5767 25.6579 21.2305 34.7029 10.5903 34.7029ZM6.3342 27.634C6.87899 29.2643 7.86867 29.5115 9.40314 29.5115C9.99672 29.5115 10.5903 29.5115 11.3337 29.4628C14.3527 29.2643 14.5502 28.3743 14.6989 26.8427C14.9951 23.0854 15.1438 20.4154 15.1438 17.3996C15.1438 14.978 15.095 11.9123 14.8963 8.69923C14.7477 6.32629 14.5502 4.3003 11.4325 4.3003H11.3337C8.66088 4.3003 7.81988 4.3003 6.97888 7.11766C5.93925 10.6278 5.5931 16.8566 5.5931 18.6865C5.5931 19.971 5.74062 26.1012 6.3342 27.634Z" fill="#231F20"/>
<path d="M38.1065 1.38431L41.9664 1.33441C42.7087 1.33441 42.7087 1.38431 42.7087 1.92852L42.61 21.1081C42.2638 27.9299 41.0767 33.8617 33.6041 33.8617C23.5586 33.8617 23.5586 25.8053 23.5586 17.055C23.5586 12.9021 23.7561 5.88303 24.3009 2.86725C24.4495 2.22325 24.4495 2.17451 25.3405 2.12462C26.5776 2.07588 27.5185 2.02599 28.7544 2.02599C29.1505 2.02599 29.2005 2.02599 29.2005 2.27314V2.76746C28.8543 5.98166 28.8543 11.4679 28.8543 16.0165V18.0924C28.8543 21.5526 28.9531 24.8654 29.4978 27.337C29.5637 27.6665 29.844 27.8313 30.3388 27.8313L35.6346 27.8812C36.4268 27.8812 36.5255 27.7326 36.7729 27.3869C37.3166 26.6442 37.3665 25.854 37.3665 25.0627V1.97725C37.3665 1.43304 37.3665 1.38431 38.1088 1.38431H38.1065Z" fill="#231F20"/>
<path d="M59.7815 35H59.5841C58.7431 35 58.5444 34.7529 58.5444 34.4059C58.5444 34.11 58.6432 33.7143 58.6432 33.2699C58.6432 30.2541 58.5444 26.9425 57.5548 23.6795C56.9112 21.751 54.5358 20.9596 52.4077 20.9596C51.3193 20.9596 51.2694 20.9596 51.2694 21.2567V28.5739C51.2694 29.7598 51.2694 30.897 51.3193 31.9343V32.2801C51.3193 33.3685 51.0719 33.3685 49.4875 33.4173C48.2504 33.466 47.4094 33.5159 46.0735 33.5159C45.1826 33.5159 45.1826 33.3674 45.1826 32.4275V12.2592C45.1826 8.84893 45.1826 5.48737 45.1338 2.17569V1.87864C45.1338 0.890011 45.3313 0.840116 46.6183 0.840116H47.0144C48.945 0.79022 50.4284 0.691589 52.309 0.691589C60.2264 0.691589 64.2363 3.75727 64.2363 9.14483C64.2363 13.8408 61.0186 16.7092 55.8728 17.9439C58.1495 18.3395 60.7224 19.3282 62.4056 20.861C64.4837 22.8383 64.6812 29.3641 64.7311 33.3186V34.0601C64.7311 34.6043 64.6324 34.703 63.3953 34.8016C62.3556 34.9014 60.9199 34.9501 59.7815 35ZM50.4295 9.88746C50.4295 11.5688 50.5283 13.249 50.8744 14.8805C50.9244 15.0789 51.2705 15.376 51.5679 15.376H51.7654C54.0409 15.376 55.6753 14.0903 56.615 13.003C57.5559 11.9146 57.8521 10.3829 57.8521 9.3943C57.8521 6.67558 56.2189 4.64842 51.914 4.64842H51.7665C50.8756 4.64842 50.6281 4.64842 50.5794 5.43979C50.5306 6.97147 50.4307 8.45557 50.4307 9.88862L50.4295 9.88746Z" fill="#231F20"/>
<path d="M92.4939 14.385C91.999 14.385 91.3567 14.2864 90.8606 14.2365C89.7722 14.0392 89.821 13.792 89.6235 12.8533C89.4261 11.6175 89.5248 10.282 89.1775 9.04733C88.6827 7.61428 88.1878 4.20166 85.3175 4.20166C84.7727 4.20166 84.2779 4.30145 83.833 4.49871C81.9024 5.7345 81.4076 7.2186 81.2101 9.29449V9.64027C81.2101 12.8046 85.2188 14.6832 88.8313 15.7206C94.1758 17.352 96.1064 20.7136 96.1064 24.8665C96.1064 27.981 94.4732 30.7983 91.2567 32.7756C89.9209 33.6157 88.189 34.0601 86.5558 34.0601C85.5161 34.0601 84.4277 33.9116 83.2894 33.5658C77.9448 32.0329 76.2129 28.0784 76.2129 23.7271C76.2129 22.6885 76.2617 21.5526 76.4603 20.4154C76.6578 19.4268 76.8564 19.4268 77.896 19.4268C78.737 19.4268 79.628 19.5753 80.469 19.7238C81.6074 19.9211 81.8048 19.8723 81.8048 21.0083C81.9036 24.1726 81.9535 28.5727 85.4174 28.7688C88.2877 28.7688 90.0197 27.3358 90.0197 25.0615C90.0197 24.2214 89.8222 23.1829 89.4749 22.0457C88.7326 19.7714 84.8726 19.3757 82.5471 18.3383C79.3306 16.9053 76.8065 14.5324 76.8065 11.4667C76.8065 5.43628 80.2704 0.888824 87.2481 0.838928C93.3848 0.838928 95.5117 5.78207 95.5117 10.4792C95.5117 11.3193 95.4629 12.3079 95.2643 13.1492C95.0668 13.9893 95.1156 14.0879 94.1271 14.2365C93.5823 14.2864 93.0375 14.385 92.4939 14.385Z" fill="#231F20"/>
<path d="M108.678 32.4286V32.7257C108.678 33.4184 108.628 33.4671 107.589 33.517H106.203C105.016 33.517 104.817 33.4671 103.729 33.3685C102.739 33.2699 102.59 33.22 102.59 32.3799V28.6226C102.59 23.531 102.788 17.8962 102.788 12.2592C102.788 10.6776 102.788 9.0949 102.739 7.51333C102.739 6.82175 102.739 6.77186 101.798 6.77186L98.2356 6.72196C96.801 6.72196 96.7011 6.62333 96.7011 5.68344V5.43628C96.7011 4.30028 96.6523 3.06334 96.6523 1.87745C96.6523 0.838925 96.9985 0.838925 98.0381 0.838925C104.175 0.838925 107.886 0.789029 114.072 0.640503C114.567 0.640503 114.665 0.690399 114.665 0.987451V1.18471L114.616 4.39892C114.616 4.99186 114.468 5.04176 113.824 5.04176H112.092L109.668 5.09165C108.53 5.09165 108.481 5.14039 108.481 5.88302C108.481 14.9292 108.678 23.3325 108.678 32.4286Z" fill="#231F20"/>
<path d="M125.305 34.7029C115.952 34.7029 114.715 24.8155 114.715 18.7851C114.715 11.6164 115.31 0 126.444 0C135.549 0 136.292 9.78881 136.292 18.0436C136.292 25.6579 135.945 34.7029 125.305 34.7029ZM121.049 27.634C121.594 29.2643 122.584 29.5115 124.118 29.5115C124.712 29.5115 125.305 29.5115 126.049 29.4628C129.068 29.2643 129.265 28.3743 129.414 26.8427C129.71 23.0854 129.859 20.4154 129.859 17.3996C129.859 14.978 129.81 11.9123 129.611 8.69923C129.463 6.32629 129.265 4.3003 126.147 4.3003H126.049C123.376 4.3003 122.535 4.3003 121.694 7.11766C120.654 10.6278 120.308 16.8566 120.308 18.6865C120.308 19.971 120.455 26.1012 121.049 27.634Z" fill="#231F20"/>
<path d="M153.167 35H152.97C152.129 35 151.93 34.7529 151.93 34.4059C151.93 34.11 152.029 33.7143 152.029 33.2699C152.029 30.2541 151.93 26.9425 150.941 23.6795C150.297 21.751 147.922 20.9596 145.793 20.9596C144.705 20.9596 144.655 20.9596 144.655 21.2567V28.5739C144.655 29.7598 144.655 30.897 144.705 31.9343V32.2801C144.705 33.3685 144.458 33.3685 142.873 33.4173C141.636 33.466 140.795 33.5159 139.459 33.5159C138.568 33.5159 138.568 33.3674 138.568 32.4275V12.2592C138.568 8.84893 138.568 5.48737 138.52 2.17569V1.87864C138.52 0.890011 138.717 0.840116 140.004 0.840116H140.4C142.331 0.79022 143.814 0.691589 145.695 0.691589C153.612 0.691589 157.622 3.75727 157.622 9.14483C157.622 13.8408 154.404 16.7092 149.259 17.9439C151.535 18.3395 154.108 19.3282 155.791 20.861C157.869 22.8383 158.067 29.3641 158.117 33.3186V34.0601C158.117 34.6043 158.018 34.703 156.781 34.8016C155.741 34.9014 154.307 34.9501 153.168 35H153.167ZM143.814 9.88746C143.814 11.5688 143.913 13.249 144.259 14.8805C144.309 15.0789 144.655 15.376 144.952 15.376H145.15C147.426 15.376 149.06 14.0903 150 13.003C150.941 11.9146 151.237 10.3829 151.237 9.3943C151.237 6.67558 149.604 4.64842 145.299 4.64842H145.151C144.26 4.64842 144.013 4.64842 143.964 5.43979C143.915 6.97147 143.815 8.45557 143.815 9.88862L143.814 9.88746Z" fill="#231F20"/>
<path d="M172.418 33.1214C172.418 34.1599 172.022 34.0613 170.686 34.1599C169.994 34.2098 169.746 34.2585 169.053 34.2585C168.261 34.2585 168.162 34.2098 167.371 34.1599C165.886 34.0613 165.639 34.0613 165.639 33.0715C165.639 31.3913 165.788 28.7213 165.788 26.8438V23.9267L165.639 21.3066C165.639 20.4653 165.441 20.1207 165.243 19.5765C163.214 14.6322 160.739 9.29448 158.364 3.31166C158.265 2.91597 157.968 2.66882 157.968 2.52029C157.968 2.02598 162.125 1.63029 162.867 1.63029C163.461 1.63029 163.61 1.87745 163.956 2.57019C164.549 3.75608 168.409 15.2738 168.409 15.2738C169.25 13.9893 171.378 3.50892 171.823 2.12461C172.169 1.13598 172.021 0.741455 173.159 0.741455H177.81C178.651 0.741455 178.997 0.741455 178.997 0.938717C178.997 1.03735 178.949 1.23577 178.8 1.53282C175.831 9.88627 174.891 13.4962 172.416 21.2068L172.267 26.1012V27.091C172.267 28.8211 172.416 31.3913 172.416 33.1214H172.418Z" fill="#231F20"/>
</g>
<defs>
<clipPath id="clip0_83_337">
<rect width="179" height="35" fill="white"/>
</clipPath>
</defs>
</svg>
