<svg width="217" height="42" viewBox="0 0 217 42" fill="none" xmlns="http://www.w3.org/2000/svg">
<g clip-path="url(#clip0_74_234)">
<path d="M17.6572 22.7277C17.6572 29.4041 12.8759 33.5709 3.45554 33.5709C2.55662 33.5709 2.08327 33.5242 1.13657 33.4286C0.0943132 33.3342 0.000976562 33.2864 0.000976562 32.5762V32.245L0.0476449 24.2426C0.000976567 22.1598 0.000976562 20.1237 0.000976562 18.0875C0.000976562 13.8263 0.0476449 9.6595 0.0476449 5.35046V1.70496C0.0943132 0.710224 0.236541 0.663544 1.37214 0.52128C2.55551 0.379017 3.31332 0.332336 4.49669 0.332336C11.5969 0.332336 16.8049 2.36848 16.8049 7.43552C16.8049 11.2233 13.397 13.4962 10.1302 15.1533C14.7215 16.3848 17.6561 18.232 17.6561 22.7289L17.6572 22.7277ZM5.68007 18.0875C4.82782 18.182 4.82782 18.2764 4.82782 18.9878V26.9901C4.82782 27.2735 4.78004 27.4636 4.78004 27.6058C4.78004 27.8426 4.92226 27.9848 5.58562 28.0315C5.86896 28.0315 6.10564 28.0793 6.39009 28.0793C6.95789 28.0793 7.66792 27.9848 8.23683 27.7481C10.1302 26.9901 12.0714 25.1918 12.0714 23.0134C12.0714 19.6991 10.2725 17.9464 7.5268 17.9464C7.05345 17.9464 6.39121 17.993 5.68007 18.0875ZM5.20783 11.6012C5.20783 12.1213 5.2545 12.2636 5.53895 12.2636C5.68118 12.2636 5.91786 12.2169 6.20231 12.1691C8.61684 11.8379 11.5981 10.4175 11.6936 7.76561C11.6936 5.39826 8.23794 4.64026 5.87119 4.54579H5.58784C5.11449 4.54579 5.11449 4.68805 5.11449 5.16152L5.20894 11.6012H5.20783Z" fill="#231F20"/>
<path d="M29.2554 34.1866C20.6395 34.1866 18.7461 25.1429 18.7461 18.7032C18.7461 11.3166 19.7884 0.852478 28.8765 0.852478C39.2913 0.852478 39.4324 11.7423 39.4324 18.561C39.4324 25.6641 38.7224 34.1866 29.2554 34.1866ZM33.5155 20.2181V13.116C33.5155 10.0385 33.1844 6.48745 31.4321 5.20819C30.9121 4.82919 30.0598 4.73472 28.7809 4.73472C27.4086 4.73472 26.8875 5.1604 26.6042 5.68166C25.1363 8.23907 24.5685 13.495 24.5685 16.9516C24.5685 19.9347 25.1363 26.5155 26.4153 28.505C26.8408 29.1207 27.5986 29.1674 28.8765 29.1674H29.8709C30.8176 29.1674 31.4332 29.0262 31.8121 28.505C32.5221 27.6047 33.5155 24.8117 33.5155 20.2181Z" fill="#231F20"/>
<path d="M51.4575 34.1866C42.8416 34.1866 40.9482 25.1429 40.9482 18.7032C40.9482 11.3166 41.9905 0.852478 51.0786 0.852478C61.4934 0.852478 61.6345 11.7423 61.6345 18.561C61.6345 25.6641 60.9245 34.1866 51.4564 34.1866H51.4575ZM55.7177 20.2181V13.116C55.7177 10.0385 55.3865 6.48745 53.6343 5.20819C53.1131 4.82919 52.262 4.73472 50.983 4.73472C49.6108 4.73472 49.0896 5.1604 48.8063 5.68166C47.3385 8.23907 46.7707 13.495 46.7707 16.9516C46.7707 19.9347 47.3385 26.5155 48.6174 28.505C49.043 29.1207 49.8008 29.1674 51.0786 29.1674H52.0731C53.0198 29.1674 53.6354 29.0262 54.0143 28.505C54.7243 27.6047 55.7177 24.8117 55.7177 20.2181Z" fill="#231F20"/>
<path d="M67.0322 0.0944708C67.3633 0.0477905 67.6 0.0477905 67.79 0.0477905C68.31 0.0477905 68.3578 0.190054 68.3578 0.948052L68.4522 8.80812C68.4522 9.70838 68.5 11.2233 68.5945 12.3591C68.6411 13.1171 68.6411 13.4006 68.7834 13.4006C68.8778 13.4006 69.0667 12.7848 69.3989 12.2647C71.4346 8.71364 72.8068 4.97256 74.3691 1.65826C74.748 0.853581 74.8425 0.663525 75.9314 0.663525H76.357L78.5815 0.757997C79.6693 0.805789 80.096 0.805789 80.096 1.0892C80.096 1.23147 79.9538 1.4682 79.8115 1.79941C77.9181 6.15512 75.2202 10.4175 73.2791 14.5365C73.9891 14.9632 75.598 15.3889 76.3559 15.9091C78.3448 17.2828 78.3915 18.4187 78.8648 20.7394C79.6226 24.6216 79.8115 29.3096 80.096 32.246V32.625C80.096 33.004 79.9538 33.0507 79.196 33.0985L76.0714 33.383C75.7869 33.383 75.5503 33.4297 75.408 33.4297C74.8869 33.4297 74.9825 33.2875 74.8869 32.5773C74.7925 30.7778 74.508 28.5528 74.2713 26.4688C73.9402 23.8647 73.798 18.7032 71.9046 18.5143C71.5257 18.4676 69.9634 18.3731 69.5378 18.3731C69.0167 18.3731 68.97 18.4676 68.97 18.7043C68.97 19.5568 69.0167 20.6938 69.0645 21.5452C69.2545 25.4285 69.5378 29.9265 69.6334 32.0104V32.3894C69.6334 32.9574 69.4434 33.0052 68.8756 33.0052H68.1178L65.3243 33.0518H64.8032C63.6198 33.0518 63.6198 32.9574 63.6198 31.8682C63.5732 25.7597 63.5254 19.6513 63.5254 13.5439C63.5254 9.56611 63.5732 5.5894 63.5732 1.5649V1.28037C63.5732 0.475693 63.6198 0.380109 64.851 0.285638L67.0288 0.0966936L67.0322 0.0944708Z" fill="#231F20"/>
<path d="M92.0269 24.007V22.9656C92.0736 21.8764 92.0736 21.8297 93.447 21.7341L97.1393 21.4974C97.5182 21.4507 97.7549 21.4507 98.0394 21.4507C98.7494 21.4507 98.7972 21.6396 98.7972 22.5399V28.0793C98.7972 28.5527 98.8449 28.8373 99.2238 29.0262C99.7439 29.3096 100.265 29.4052 100.786 29.4052C101.733 29.4052 102.916 29.3107 103.863 29.074C104.81 28.8373 104.905 27.8903 104.905 27.0379C104.905 23.818 103.532 21.0717 100.408 19.888C99.1772 19.4145 97.9471 18.9877 96.9049 18.4198C93.1181 16.3836 90.8936 13.4006 90.8936 9.51831C90.8936 8.33463 91.0825 7.10317 91.5091 5.73054C92.7392 2.08504 96.2426 0.00109863 101.355 0.00109863C109.071 0.00109863 110.728 5.44602 110.728 10.6075C110.728 11.3655 110.681 12.0279 110.539 12.7859C110.492 13.2116 110.16 13.3072 109.734 13.3072C109.451 13.3072 109.213 13.2594 108.882 13.2594L107.036 13.0705C105.474 12.976 105.474 13.1171 105.474 11.6967C105.38 9.09263 104.622 3.6944 100.929 3.6944C97.5693 3.6944 96.4804 7.62443 96.4804 9.80284C96.4804 13.9696 99.6516 14.7276 103.202 16.1947C107.794 18.0419 109.83 21.0717 109.83 25.5708C109.83 30.5422 106.232 33.6676 100.078 33.6676C94.2559 33.6676 92.0314 28.7428 92.0314 24.0081L92.0269 24.007Z" fill="#231F20"/>
<path d="M113.661 27.2735C112.856 24.8594 112.477 22.4443 112.429 19.9813C112.429 19.0344 112.383 18.1341 112.383 17.1872C112.383 14.6776 112.477 11.4111 113.093 8.94813C113.566 6.72304 114.75 4.78136 116.595 3.07642C118.063 1.7038 120.288 0.945801 122.797 0.945801C129.802 0.945801 131.412 6.20178 132.311 10.2741C132.879 12.8782 133.069 16.2403 133.069 18.891V20.8805C133.021 22.9166 132.642 24.8105 131.649 26.7044C130.513 29.024 128.288 31.3913 126.063 32.6706C125.78 33.4286 123.697 36.3161 123.697 38.3056C123.697 39.4892 124.17 40.2472 126.063 40.2472C128.004 40.2472 129.898 39.7738 129.898 38.4956C129.898 36.4595 125.874 38.4956 125.874 35.8437C125.874 34.2811 127.199 33.4764 129.282 33.4764C131.98 33.4764 132.69 35.2758 132.69 36.9807C132.69 40.3895 130.512 42 126.441 42C123.223 42 121.234 40.7218 121.234 38.2589C121.234 36.8863 123.081 34.8501 123.318 33.4297H121.33C117.164 33.4297 114.655 30.4466 113.661 27.2735ZM126.82 23.9592C126.82 19.2245 126.679 13.7317 125.873 9.04371C125.589 7.43436 125.542 4.82915 122.985 4.82915C121.802 4.82915 120.619 4.97142 119.72 5.35042C118.631 5.72942 118.442 6.06062 118.252 7.29209C117.921 10.8431 117.494 15.1999 117.494 18.751C117.494 21.4495 117.683 24.1481 118.252 26.8478C118.441 27.7947 118.631 27.7947 119.672 27.7947H123.174C122.653 26.2798 122.274 25.2851 120.476 23.5335C120.43 23.4857 120.43 23.3912 120.43 23.3445C120.43 23.1556 120.951 23.0133 121.234 23.0133C121.708 23.0133 122.039 23.2501 122.323 23.4868C124.359 24.9072 125.163 26.3287 125.731 27.6069C126.11 27.3702 126.252 26.9912 126.441 26.471C126.678 25.713 126.82 24.9083 126.82 23.9614V23.9592Z" fill="#231F20"/>
<path d="M144.62 29.8776C148.312 29.8776 148.739 25.3318 148.739 21.2606V16.3836C148.739 11.2221 148.454 6.5819 148.36 3.97781C148.36 3.50434 148.312 3.17202 148.312 2.93529C148.312 2.31955 148.549 2.27176 149.827 2.17729L153.235 1.89276H153.425C153.898 1.89276 153.898 2.17729 153.945 3.17091C153.991 4.63912 153.991 6.57968 153.991 9.0893C153.991 13.3983 154.086 17.9441 154.086 22.3476C154.086 28.8817 153.091 33.8543 144.665 33.8543C140.594 33.8543 137.612 32.1027 136.286 28.6461C135.482 26.421 135.151 23.8158 135.008 21.4485C134.962 19.459 134.867 15.9557 134.867 13.3516V5.30153C134.867 4.07117 134.962 3.5977 136.239 3.5977H139.932C140.311 3.5977 140.405 3.73885 140.405 4.16564C140.405 8.61694 140.547 12.7359 140.547 17.2817C140.547 20.975 140.594 29.8765 144.619 29.8765L144.62 29.8776Z" fill="#231F20"/>
<path d="M166.49 34.1866C157.874 34.1866 155.98 25.1429 155.98 18.7032C155.98 11.3166 157.023 0.852478 166.111 0.852478C176.526 0.852478 176.667 11.7423 176.667 18.561C176.667 25.6641 175.957 34.1866 166.489 34.1866H166.49ZM170.75 20.2181V13.116C170.75 10.0385 170.419 6.48745 168.666 5.20819C168.145 4.82919 167.294 4.73472 166.015 4.73472C164.643 4.73472 164.122 5.1604 163.839 5.68166C162.371 8.23907 161.803 13.495 161.803 16.9516C161.803 19.9347 162.371 26.5155 163.65 28.505C164.075 29.1207 164.833 29.1674 166.111 29.1674H167.105C168.052 29.1674 168.668 29.0262 169.046 28.505C169.757 27.6047 170.75 24.8117 170.75 20.2181Z" fill="#231F20"/>
<path d="M192.621 2.13062V1.89388C192.621 0.94694 192.668 0.899148 194.136 0.852468L195.698 0.757996H196.692C197.733 0.757996 197.828 0.900259 197.828 2.08394V3.03088C197.922 9.42274 197.922 15.8624 197.97 22.2554L198.065 29.9732V30.7312C198.065 31.7726 197.923 31.9148 195.792 31.9148H193.757C190.869 31.9148 191.2 31.4414 190.679 29.7842C188.833 24.0548 185.472 16.8582 183.673 11.081C183.579 11.6489 183.532 12.4536 183.532 13.3061C183.532 14.7265 183.626 16.2892 183.626 17.2839C183.626 21.9708 183.673 26.7067 183.673 31.4414V32.5306C183.673 33.3353 183.484 33.383 181.496 33.383H180.596C178.749 33.383 178.561 33.0985 178.561 32.2472V1.98947C178.561 1.27926 178.749 1.0892 180.171 1.0892H183.153C184.999 1.0892 184.81 1.27815 185.189 2.41514C186.751 6.81865 189.496 16.3359 192.242 21.6396C192.479 22.0186 192.525 22.2554 192.668 22.2554C192.714 22.2554 192.809 21.9242 192.809 20.9772V19.8891C192.809 13.9696 192.62 8.00455 192.62 2.13284L192.621 2.13062Z" fill="#231F20"/>
<path d="M203.935 0.0944708C204.266 0.0477905 204.503 0.0477905 204.693 0.0477905C205.214 0.0477905 205.261 0.190054 205.261 0.948052L205.355 8.80812C205.355 9.70838 205.402 11.2233 205.498 12.3591C205.544 13.1171 205.544 13.4006 205.686 13.4006C205.781 13.4006 205.971 12.7848 206.302 12.2647C208.338 8.71364 209.71 4.97256 211.273 1.65826C211.652 0.853581 211.747 0.663525 212.836 0.663525H213.261L215.486 0.757997C216.575 0.805789 217 0.805789 217 1.0892C217 1.23147 216.858 1.4682 216.716 1.79941C214.822 6.15512 212.124 10.4175 210.183 14.5365C210.893 14.9632 212.502 15.3889 213.26 15.9091C215.248 17.2828 215.296 18.4187 215.769 20.7394C216.527 24.6216 216.716 29.3096 217 32.246V32.625C217 33.004 216.858 33.0507 216.1 33.0985L212.976 33.383C212.692 33.383 212.456 33.4297 212.313 33.4297C211.792 33.4297 211.888 33.2875 211.792 32.5773C211.698 30.7778 211.413 28.5528 211.177 26.4688C210.845 23.8647 210.703 18.7032 208.81 18.5143C208.431 18.4676 206.869 18.3731 206.443 18.3731C205.922 18.3731 205.875 18.4676 205.875 18.7043C205.875 19.5568 205.922 20.6938 205.97 21.5452C206.159 25.4285 206.443 29.9265 206.538 32.0104V32.3894C206.538 32.9574 206.349 33.0052 205.78 33.0052H205.022L202.23 33.0518H201.708C200.525 33.0518 200.525 32.9574 200.525 31.8682C200.477 25.7597 200.431 19.6513 200.431 13.5439C200.431 9.56611 200.477 5.5894 200.477 1.5649V1.28037C200.477 0.475693 200.525 0.380109 201.755 0.285638L203.933 0.0966936L203.935 0.0944708Z" fill="#231F20"/>
</g>
<defs>
<clipPath id="clip0_74_234">
<rect width="217" height="42" fill="white"/>
</clipPath>
</defs>
</svg>
