<svg width="89" height="35" viewBox="0 0 89 35" fill="none" xmlns="http://www.w3.org/2000/svg">
<g clip-path="url(#clip0_74_274)">
<path d="M3.6512 1.33634C5.96954 1.3863 5.72404 1.68262 5.96954 3.21764C6.90753 9.35659 7.99258 17.6232 8.78119 23.8121C8.97805 25.4459 8.97805 25.2972 9.32429 23.8609L14.4554 1.58385C14.4554 0.940088 15.1954 0.593807 15.7871 0.593807L19.0921 0.445068H19.487C20.1783 0.445068 20.425 0.54384 20.425 0.940088C20.425 1.03886 20.3763 1.08883 20.3763 1.23757C17.9596 11.3855 15.8381 23.3159 12.4336 33.2175C12.1371 34.1587 12.1869 34.2575 10.5089 34.2575H6.70951C5.3778 34.2075 5.18094 34.1087 4.98292 33.2175L0.148225 2.82256C0.0497944 2.57505 0 2.37634 0 2.1788C0 1.73258 0.345087 1.3863 1.87482 1.33634H3.6512Z" fill="#231F20"/>
<path d="M25.8018 1.58384C27.3315 1.63381 27.4797 1.78254 27.4797 2.67381V31.9311C27.4797 33.4661 27.2331 33.3662 25.4567 33.5649L23.5819 33.7625C23.1384 33.8113 22.7435 33.8612 22.4482 33.8612C21.8066 33.8612 21.8066 33.5638 21.8066 32.5249V2.4263C21.8066 1.73258 22.0035 1.53503 23.1384 1.53503H23.5819L25.8018 1.58384Z" fill="#231F20"/>
<path d="M29.9465 0.74253C29.9465 0.0499668 30.1433 0 30.6864 0H38.481C40.4045 0.0499668 42.2793 0.396248 43.8588 1.33632C48.6437 4.05893 48.6437 10.3954 48.6437 16.3856V17.9206C48.6437 28.366 45.1905 34.5538 31.475 35H30.8833C29.9453 35 29.9453 34.8513 29.9453 33.8124V0.74253H29.9465ZM42.5271 22.4258C42.5271 21.1383 42.6255 19.3557 42.6255 17.4756V16.3856C42.6255 10.3466 42.5769 3.46514 36.3109 3.46514C35.7689 3.46514 35.6207 3.51394 35.6207 4.20767V5.94024C35.6207 13.1192 35.6694 20.297 35.6694 27.4748V29.0098C35.6694 29.7523 35.6694 29.8511 36.0642 29.8511H36.1627C39.9123 29.8511 42.5271 26.4847 42.5271 22.4258Z" fill="#231F20"/>
<path d="M65.4179 33.2174L51.9491 33.1686C50.8641 33.1686 50.7656 33.1198 50.7656 31.9811V1.73255C50.7656 1.03999 50.8154 0.990019 51.9989 0.940053L64.1348 0.643738H64.4301C65.3183 0.643738 65.2697 0.791314 65.3183 1.53501C65.4168 2.52505 65.4666 3.21877 65.4666 4.55509C65.4666 5.14888 65.4179 5.14888 64.7266 5.14888H57.0305C56.0438 5.14888 56.0438 5.24766 56.0438 5.94138V13.3179C56.0438 13.6642 56.1423 13.7141 56.8822 13.7141L64.3317 13.7629C65.1215 13.7629 65.2697 13.7629 65.2697 14.1092V14.5055L65.023 17.6743C64.9574 18.1035 64.6448 18.3343 64.0851 18.3668L57.7206 18.5644C57.0305 18.5644 56.9807 18.6132 56.9807 19.0094V19.2081L57.0293 27.2772C57.0293 28.0197 57.0293 28.0697 58.0159 28.0697L65.7607 28.1185C66.6002 28.1185 66.6489 28.2173 66.6489 28.6635V32.3273C66.6489 33.2186 66.6003 33.2186 65.4156 33.2186L65.4179 33.2174Z" fill="#231F20"/>
<path d="M78.3939 34.9512C69.4147 34.9512 67.4414 25.4958 67.4414 18.7631C67.4414 11.0403 68.5276 0.0999146 77.999 0.0999146C88.853 0.0999146 89.0001 11.4854 89.0001 18.6144C89.0001 26.0408 88.2613 34.9512 78.3939 34.9512ZM82.8337 20.3469V12.9216C82.8337 9.704 82.4886 5.99135 80.6624 4.65387C80.1193 4.25762 79.2323 4.15885 77.8994 4.15885C76.4692 4.15885 75.9261 4.6039 75.6308 5.14889C74.1011 7.82269 73.5094 13.3179 73.5094 16.9318C73.5094 20.0506 74.1011 26.9309 75.434 29.0109C75.8775 29.6547 76.6673 29.7035 77.999 29.7035H79.0354C80.022 29.7035 80.6636 29.5559 81.0584 29.0109C81.7984 28.0697 82.8337 25.1495 82.8337 20.3469Z" fill="#231F20"/>
</g>
<defs>
<clipPath id="clip0_74_274">
<rect width="89" height="35" fill="white"/>
</clipPath>
</defs>
</svg>
