<svg width="243" height="35" viewBox="0 0 243 35" fill="none" xmlns="http://www.w3.org/2000/svg">
<g clip-path="url(#clip0_74_177)">
<path d="M6.16403 32.2372C6.16403 33.5458 6.16403 33.5947 4.3687 33.5947H0.970569C0.0968291 33.5947 0.145813 33.498 0.0968291 32.3829L0 1.74551C0.047845 0.63039 -0.144674 0.436951 1.16423 0.436951C3.59065 0.436951 7.13346 0.484742 9.60886 0.63039C13.1027 0.872758 15.8207 2.52154 16.4997 5.18646C16.8391 6.44722 17.0339 7.70686 17.0339 8.96762C17.0339 13.8639 13.7338 17.6929 7.32711 18.0809C6.61476 18.1128 6.25858 18.4037 6.25858 18.9536L6.16175 32.2361L6.16403 32.2372ZM5.82342 3.87789C5.14447 3.87789 5.09549 3.97461 5.09549 4.50828V4.79844L5.2413 12.8944C5.2413 13.4281 5.2413 13.5726 5.67874 13.5726C9.80366 13.5726 11.648 10.6153 11.648 8.48289C11.648 4.79844 9.80252 3.87789 5.82342 3.87789Z" fill="#231F20"/>
<path d="M33.3904 33.3034L20.1408 33.2556C19.0734 33.2556 18.9766 33.2078 18.9766 32.0927V2.47259C18.9766 1.79442 19.0255 1.74549 20.1898 1.69656L32.1282 1.4064H32.4187C33.2925 1.4064 33.2446 1.55091 33.2925 2.27916C33.3893 3.24863 33.4383 3.92794 33.4383 5.2365C33.4383 5.81796 33.3904 5.81796 32.7103 5.81796H25.1394C24.1689 5.81796 24.1689 5.91468 24.1689 6.59399V13.8172C24.1689 14.1563 24.2657 14.2053 24.9936 14.2053L32.3219 14.253C33.0988 14.253 33.2446 14.253 33.2446 14.5921V14.9802L33.002 18.0831C32.9374 18.5034 32.6298 18.7295 32.0792 18.7613L25.8184 18.9548C25.1394 18.9548 25.0905 19.0026 25.0905 19.3906V19.5851L25.1383 27.4866C25.1383 28.2137 25.1383 28.2626 26.1089 28.2626L33.7276 28.3104C34.5535 28.3104 34.6014 28.4071 34.6014 28.8441V32.4318C34.6014 33.3045 34.5535 33.3045 33.3881 33.3045L33.3904 33.3034Z" fill="#231F20"/>
<path d="M49.4051 33.2556C49.3573 29.7657 49.0167 25.3542 47.464 20.7492C46.7851 20.0221 44.5523 19.7786 43.1443 19.6819C42.8048 19.6819 42.4653 19.6341 42.2705 19.6341C41.7374 19.6341 41.6394 19.6819 41.6394 19.9732C41.6394 20.1177 41.6394 20.3612 41.6884 20.7003L41.8331 21.6697C42.4642 25.2085 42.3674 29.7168 42.4152 32.4796V33.1589C42.4152 34.0317 42.2216 33.9827 40.5231 34.0317C39.4545 34.0794 39.115 34.1284 38.0966 34.1284C36.7866 34.1284 36.5918 33.9349 36.5918 33.1589V1.7455C36.5918 0.388007 36.6886 0.388007 38.5329 0.242359C39.7461 0.145639 40.3283 0.0967102 41.5426 0.0967102C43.92 0.0967102 46.2018 0.29015 48.2398 0.678166C53.4332 1.69657 54.7911 4.36262 54.7911 8.53066V8.57959C54.7911 10.8576 54.7433 13.427 53.0926 14.7355C51.1025 16.3354 47.317 16.8201 46.7839 17.2081C47.7055 17.2081 49.6956 17.8874 51.4431 18.5167C52.3647 18.8558 52.85 19.3405 53.2384 20.0676C54.0632 21.7153 54.0632 23.0739 54.4516 25.1573C54.9859 28.1147 54.9369 30.2471 55.1317 32.7686V33.3011C55.1317 34.3195 54.9381 34.3685 53.7248 34.3685H50.861C49.4051 34.3685 49.4051 34.3207 49.4051 33.2533V33.2556ZM43.969 14.4465C45.4739 14.4465 47.0755 14.3987 48.3856 13.2836C48.725 11.8294 48.9198 10.1328 48.9198 8.48401C48.9198 7.51454 48.8709 6.54507 48.5314 5.42995C48.2887 4.55719 47.7545 4.46047 46.5903 4.36375C46.1528 4.31596 45.8623 4.31596 45.4739 4.31596C44.9886 4.31596 43.969 4.31596 43.5327 4.36375C42.4653 4.41154 42.3685 4.55719 42.3685 5.09086V5.91468C42.2717 7.99927 42.2717 13.089 42.2717 13.089V13.9128C42.2717 14.2519 42.4175 14.4465 43.1454 14.4465H43.969Z" fill="#231F20"/>
<path d="M64.4982 6.59287C63.5766 6.59287 62.9933 6.68959 62.9933 7.61127V7.70799L63.0902 12.0228C63.0902 12.8478 63.187 12.8478 64.3034 12.8478C66.1477 12.8956 67.0214 12.9445 68.8657 12.9445H69.2052C69.8363 12.9445 70.0311 12.9934 70.0311 13.7205L70.1769 16.5322V16.8224C70.1769 17.4038 70.0311 17.4038 68.9147 17.4038C66.9736 17.4516 65.0324 17.5495 63.4308 17.5973C62.4112 17.6462 62.3144 17.6462 62.3144 18.0342C62.3144 23.1729 62.2665 27.8746 62.2665 33.0133C62.2665 33.7241 61.7813 34.0954 60.8107 34.1272L59.209 34.224H58.3843C57.2679 34.224 57.0742 33.9338 57.0742 33.3512V32.4307C57.171 24.2869 57.22 16.4332 57.22 8.24052V2.08459C57.22 1.16291 57.3658 1.06619 59.1122 1.06619H70.7602C71.3434 1.06619 71.4881 1.16291 71.5371 1.7933L71.7319 5.86576V6.15592C71.7319 6.64066 71.5371 6.68959 71.0039 6.68959C68.868 6.68959 68.6743 6.59287 66.3448 6.59287H64.5004H64.4982Z" fill="#231F20"/>
<path d="M83.1844 35C74.3513 35 72.4102 25.7411 72.4102 19.1482C72.4102 11.5859 73.4787 0.872742 82.7959 0.872742C93.4733 0.872742 93.618 12.0217 93.618 19.0026C93.618 26.2747 92.8901 35 83.1844 35ZM87.552 20.6991V13.4281C87.552 10.2773 87.2125 6.64179 85.416 5.33209C84.8829 4.94407 84.0091 4.84735 82.698 4.84735C81.2911 4.84735 80.7568 5.28316 80.4663 5.81682C78.9615 8.43508 78.3794 13.8161 78.3794 17.3549C78.3794 20.409 78.9615 27.1464 80.2727 29.1832C80.709 29.8135 81.4859 29.8613 82.7959 29.8613H83.8155C84.786 29.8613 85.4171 29.7168 85.8056 29.1832C86.5335 28.2615 87.552 25.402 87.552 20.6991Z" fill="#231F20"/>
<path d="M108.372 33.2556C108.324 29.7657 107.984 25.3542 106.431 20.7492C105.752 20.0221 103.519 19.7786 102.111 19.6819C101.772 19.6819 101.431 19.6341 101.237 19.6341C100.703 19.6341 100.606 19.6819 100.606 19.9732C100.606 20.1177 100.606 20.3612 100.654 20.7003L100.8 21.6697C101.431 25.2085 101.334 29.7168 101.382 32.4796V33.1589C101.382 34.0317 101.189 33.9827 99.4889 34.0317C98.4215 34.0794 98.082 34.1284 97.0625 34.1284C95.7524 34.1284 95.5576 33.9349 95.5576 33.1589V1.7455C95.5576 0.388007 95.6544 0.388007 97.4987 0.242359C98.712 0.145639 99.2952 0.0967102 100.508 0.0967102C102.886 0.0967102 105.168 0.29015 107.206 0.678166C112.399 1.69657 113.757 4.36262 113.757 8.53066V8.57959C113.757 10.8576 113.709 13.427 112.058 14.7355C110.068 16.3354 106.284 16.8201 105.75 17.2081C106.672 17.2081 108.661 17.8874 110.409 18.5167C111.332 18.8558 111.816 19.3405 112.204 20.0676C113.029 21.7153 113.029 23.0739 113.417 25.1573C113.952 28.1147 113.903 30.2471 114.098 32.7686V33.3011C114.098 34.3195 113.904 34.3685 112.69 34.3685H109.827C108.371 34.3685 108.371 34.3207 108.371 33.2533L108.372 33.2556ZM102.936 14.4465C104.441 14.4465 106.042 14.3987 107.353 13.2836C107.692 11.8294 107.887 10.1328 107.887 8.48401C107.887 7.51454 107.839 6.54507 107.498 5.42995C107.256 4.55719 106.721 4.46047 105.557 4.36375C105.121 4.31596 104.829 4.31596 104.441 4.31596C103.956 4.31596 102.936 4.31596 102.5 4.36375C101.431 4.41154 101.335 4.55719 101.335 5.09086V5.91468C101.239 7.99927 101.239 13.089 101.239 13.089V13.9128C101.239 14.2519 101.383 14.4465 102.112 14.4465H102.936Z" fill="#231F20"/>
<path d="M118.564 34.9522H118.03C116.283 34.9033 116.089 34.8065 116.089 33.9338V1.1629C116.089 0.290149 116.186 0.144501 117.787 0.144501H118.904C121.184 0.144501 120.991 0.629237 121.524 1.89001C123.174 5.81682 124.872 10.2773 126.668 14.5432C127.057 15.4638 127.25 15.8996 127.445 15.8996C127.688 15.8996 127.882 15.3181 128.416 14.2997C130.065 11.1489 133.365 5.67118 134.967 2.37474C135.55 1.1629 135.405 0.969462 135.987 0.871605C136.472 0.774885 137.588 0.386869 138.17 0.386869C138.898 0.386869 138.753 0.774885 138.849 1.64764L138.802 31.5579C138.802 31.897 138.849 32.1394 138.849 32.3339C138.849 32.9643 138.51 33.061 137.103 33.11L135.356 33.2067H135.016C133.365 33.2067 133.318 32.722 133.318 31.0254C133.414 28.6984 133.414 26.3715 133.414 24.0445C133.414 21.3295 133.367 18.5668 133.221 15.804C133.221 14.5444 133.221 14.0585 133.124 14.0585C132.978 14.0585 132.736 14.7856 132.201 15.8518C131.231 17.9364 129.775 20.7481 128.319 23.124C127.786 23.9967 127.591 24.5292 127.348 24.5292C127.155 24.5292 126.863 24.1901 126.475 23.2685L121.912 12.4097C121.524 11.5859 121.33 11.0533 121.184 11.0533C121.135 11.0533 121.135 11.1501 121.135 11.4414V12.701C121.184 14.3008 121.184 15.8518 121.184 17.4516C121.184 22.6881 121.039 27.9713 121.039 33.3034V33.6914C121.039 34.9522 120.602 34.9522 118.564 34.9522Z" fill="#231F20"/>
<path d="M155.255 32.4796C154.963 29.619 154.624 26.8084 154.235 24.0445C154.188 23.7054 154.188 23.6087 153.945 23.6087C153.799 23.6087 153.653 23.6565 153.46 23.6565C152.004 23.8022 150.451 23.9478 149.092 24.0445C148.364 24.0934 148.267 24.0934 148.218 24.6271L146.52 33.6914C146.472 34.1273 146.472 34.1762 145.792 34.1762C144.093 34.224 142.395 34.3218 140.695 34.3218C140.356 34.3218 140.21 34.2729 140.21 34.0795C140.21 33.9827 140.21 33.886 140.307 33.7404C141.035 30.2505 141.617 26.9051 142.2 23.3663C142.831 20.3123 143.364 17.2093 143.948 14.1564C144.579 11.1023 145.889 4.84851 146.471 2.08574C146.713 0.92283 146.568 0.873901 147.635 0.873901H155.109C156.032 0.873901 156.08 0.921692 156.224 1.79558L160.69 32.6264V32.9166C160.69 33.11 160.544 33.11 160.059 33.11H156.08C155.255 33.11 155.303 33.0622 155.255 32.4796ZM150.644 5.52669C150.255 5.52669 150.158 5.9147 150.109 6.20486L148.168 17.9853V18.2277C148.168 18.4223 148.314 18.4223 148.847 18.4223H151.857C152.391 18.4223 152.488 18.4223 152.488 18.2277C152.488 18.131 152.44 18.0342 152.44 17.8886L151.809 6.10814C151.761 5.76905 151.663 5.47776 151.373 5.47776L150.645 5.52555L150.644 5.52669Z" fill="#231F20"/>
<path d="M176.657 2.18131V1.93894C176.657 0.969471 176.706 0.920542 178.21 0.872751L179.812 0.776031H180.831C181.9 0.776031 181.995 0.92168 181.995 2.13352V3.10299C182.092 9.64693 182.092 16.2398 182.141 22.7849L182.238 30.6863V31.4623C182.238 32.5285 182.092 32.6742 179.908 32.6742H177.821C174.861 32.6742 175.201 32.1894 174.667 30.4929C172.774 24.6271 169.329 17.2593 167.485 11.3446C167.388 11.9261 167.339 12.7499 167.339 13.6227C167.339 15.0769 167.436 16.6767 167.436 17.6951C167.436 22.4936 167.483 27.3421 167.483 32.1894V33.3046C167.483 34.1284 167.29 34.1773 165.252 34.1773H164.329C162.436 34.1773 162.242 33.886 162.242 33.0144V2.0368C162.242 1.3097 162.436 1.11512 163.893 1.11512H166.95C168.844 1.11512 168.649 1.30856 169.037 2.47261C170.639 6.98088 173.454 16.7245 176.269 22.1545C176.511 22.5425 176.56 22.7849 176.706 22.7849C176.754 22.7849 176.852 22.4458 176.852 21.4763V20.3623C176.852 14.302 176.657 8.195 176.657 2.18359V2.18131Z" fill="#231F20"/>
<path d="M199.515 19.4873C199.515 19.0993 199.612 19.0515 200.194 19.0515C201.019 19.0515 201.796 19.0515 202.67 19.0993C203.64 19.1471 203.786 19.1471 203.786 19.8264C203.786 27.292 203.204 34.4174 193.935 34.7087H193.595C187.675 34.7087 185.101 29.8124 184.763 26.6616C184.569 24.7705 184.521 22.8805 184.521 20.9904C184.521 18.2755 184.665 15.4638 184.714 12.701C184.909 6.78745 187.724 0.19458 195.877 0.19458C200.39 0.19458 204.176 3.05407 204.176 7.85364V9.01655C204.176 9.98602 204.224 11.0534 204.224 12.0217C204.224 13.0401 203.835 12.8944 202.525 12.9923C201.361 13.0401 200.099 13.1368 198.885 13.1368C198.059 13.1368 198.059 12.9923 198.059 12.2163C197.963 9.30671 198.302 4.50828 195.196 4.50828C192.721 4.50828 191.264 4.99301 190.634 5.72012C190.149 7.17433 190.1 10.1317 190.1 12.313V19.8753C190.1 23.5598 190.489 28.4561 194.274 28.4561C198.933 28.4561 199.612 25.4987 199.612 22.4447C199.612 21.4263 199.515 20.4568 199.515 19.4873Z" fill="#231F20"/>
<path d="M220.772 33.3034L207.523 33.2556C206.455 33.2556 206.358 33.2078 206.358 32.0927V2.47259C206.358 1.79442 206.407 1.74549 207.572 1.69656L219.51 1.4064H219.801C220.674 1.4064 220.626 1.55091 220.674 2.27916C220.771 3.24863 220.82 3.92794 220.82 5.2365C220.82 5.81796 220.772 5.81796 220.092 5.81796H212.521C211.551 5.81796 211.551 5.91468 211.551 6.59399V13.8172C211.551 14.1563 211.648 14.2053 212.375 14.2053L219.704 14.253C220.481 14.253 220.626 14.253 220.626 14.5921V14.9802L220.384 18.0831C220.319 18.5034 220.012 18.7295 219.461 18.7613L213.2 18.9548C212.521 18.9548 212.472 19.0026 212.472 19.3906V19.5851L212.52 27.4866C212.52 28.2137 212.52 28.2626 213.491 28.2626L221.109 28.3104C221.935 28.3104 221.983 28.4071 221.983 28.8441V32.4318C221.983 33.3045 221.935 33.3045 220.77 33.3045L220.772 33.3034Z" fill="#231F20"/>
<path d="M223.831 24.5782V23.512C223.879 22.3969 223.879 22.3491 225.287 22.2512L229.072 22.0088C229.461 21.961 229.703 21.961 229.995 21.961C230.723 21.961 230.772 22.1545 230.772 23.0762V28.7474C230.772 29.2321 230.821 29.5234 231.209 29.7168C231.742 30.007 232.277 30.1048 232.811 30.1048C233.782 30.1048 234.995 30.0081 235.965 29.7658C236.936 29.5234 237.034 28.5539 237.034 27.6812C237.034 24.3847 235.626 21.573 232.424 20.3612C231.161 19.8765 229.9 19.4395 228.832 18.8581C224.95 16.7735 222.669 13.7194 222.669 9.74478C222.669 8.53294 222.863 7.27217 223.3 5.86689C224.561 2.13465 228.153 0.00112915 233.394 0.00112915C241.305 0.00112915 243.003 5.57559 243.003 10.8599C243.003 11.6359 242.955 12.3141 242.809 13.0901C242.762 13.526 242.421 13.6238 241.985 13.6238C241.694 13.6238 241.45 13.5749 241.111 13.5749L239.219 13.3814C237.617 13.2847 237.617 13.4292 237.617 11.975C237.52 9.30897 236.743 3.7823 232.958 3.7823C229.513 3.7823 228.397 7.80584 228.397 10.0361C228.397 14.302 231.648 15.078 235.287 16.58C239.996 18.4712 242.083 21.573 242.083 26.1792C242.083 31.2689 238.394 34.4686 232.085 34.4686C226.116 34.4686 223.835 29.4267 223.835 24.5793L223.831 24.5782Z" fill="#231F20"/>
</g>
<defs>
<clipPath id="clip0_74_177">
<rect width="243" height="35" fill="white"/>
</clipPath>
</defs>
</svg>
