<svg width="200" height="35" viewBox="0 0 200 35" fill="none" xmlns="http://www.w3.org/2000/svg">
<g clip-path="url(#clip0_74_246)">
<path d="M15.2221 32.9815C14.9282 30.0766 14.5836 27.2227 14.1905 24.4161C14.1421 24.0717 14.1421 23.9735 13.8966 23.9735C13.7491 23.9735 13.6016 24.022 13.4056 24.022C11.9326 24.1699 10.3616 24.3178 8.98658 24.4161C8.25007 24.4657 8.15095 24.4657 8.10254 25.0077L6.38403 34.2132C6.33447 34.6557 6.33447 34.7054 5.64752 34.7054C3.92901 34.7539 2.21049 34.8533 0.491981 34.8533C0.148508 34.8533 0.000976562 34.8036 0.000976562 34.6072C0.000976562 34.5078 0.000976562 34.4096 0.0989468 34.2617C0.835453 30.7179 1.42443 27.3209 2.0134 23.7274C2.65194 20.6262 3.19135 17.4764 3.78148 14.3751C4.42001 11.2727 5.74549 4.92347 6.33447 2.11801C6.57997 0.937136 6.43244 0.887451 7.51242 0.887451H15.0746C16.007 0.887451 16.0566 0.937136 16.2041 1.82337L20.7211 33.1317V33.4275C20.7211 33.6239 20.5747 33.6239 20.0826 33.6239H16.0566C15.2209 33.6239 15.2705 33.5754 15.2209 32.9838L15.2221 32.9815ZM10.5576 5.61097C10.1645 5.61097 10.0666 6.00613 10.017 6.30078L8.05298 18.2632V18.5094C8.05298 18.7069 8.20051 18.7069 8.74108 18.7069H11.7851C12.3256 18.7069 12.4236 18.7069 12.4236 18.5094C12.4236 18.4111 12.3752 18.3129 12.3752 18.165L11.7367 6.20256C11.6871 5.85823 11.5891 5.56244 11.2941 5.56244L10.5576 5.61097Z" fill="#231F20"/>
<path d="M26.4177 1.23053C28.2342 1.23053 28.3333 1.28021 28.3333 2.50962V2.75573L27.8423 28.1065V28.2544C27.8423 29.2885 27.8423 29.3856 29.3154 29.485L33.4405 29.7796C34.6184 29.879 34.8639 29.7796 34.8639 30.6173V30.8137L34.8155 33.0299C34.7671 34.4072 34.57 34.2593 32.7535 34.309C29.758 34.3587 26.6644 34.4569 23.7184 34.4569C22.6372 34.4569 22.3433 34.2593 22.3433 32.882L22.2949 2.80542V2.16529C22.2949 1.37727 22.3929 1.22937 24.0134 1.22937H26.4189L26.4177 1.23053Z" fill="#231F20"/>
<path d="M40.7068 1.23053C42.5233 1.23053 42.6224 1.28021 42.6224 2.50962V2.75573L42.1314 28.1065V28.2544C42.1314 29.2885 42.1314 29.3856 43.6044 29.485L47.7295 29.7796C48.9075 29.879 49.153 29.7796 49.153 30.6173V30.8137L49.1046 33.0299C49.0562 34.4072 48.8591 34.2593 47.0426 34.309C44.047 34.3587 40.9535 34.4569 38.0074 34.4569C36.9263 34.4569 36.6324 34.2593 36.6324 32.882L36.584 2.80542V2.16529C36.584 1.37727 36.682 1.22937 38.3025 1.22937H40.708L40.7068 1.23053Z" fill="#231F20"/>
<path d="M73.6548 33.7695C73.6064 30.2257 73.2617 25.746 71.6908 21.0698C71.0038 20.3304 68.7447 20.0842 67.3201 19.986C66.9767 19.986 66.6332 19.9363 66.4361 19.9363C65.8967 19.9363 65.7976 19.986 65.7976 20.2818C65.7976 20.4297 65.7976 20.6758 65.8471 21.0202L65.9935 22.0058C66.632 25.5981 66.5341 30.176 66.5825 32.9826V33.6724C66.5825 34.5587 66.3865 34.509 64.668 34.5587C63.5869 34.6084 63.2434 34.6569 62.213 34.6569C60.8875 34.6569 60.6904 34.4605 60.6904 33.6724V1.77253C60.6904 0.394064 60.7884 0.394064 62.6544 0.246165C63.882 0.147951 64.4709 0.0982666 65.6996 0.0982666C68.1051 0.0982666 70.4137 0.29585 72.4757 0.689861C77.7303 1.724 79.1042 4.43124 79.1042 8.66368V8.71337C79.1042 11.0266 79.0558 13.6356 77.3857 14.9644C75.3721 16.589 71.5421 17.0812 71.0027 17.4752C71.9351 17.4752 73.9487 18.165 75.7168 18.804C76.6492 19.1483 77.1402 19.6417 77.5332 20.3789C78.3677 22.052 78.3677 23.4316 78.7608 25.5484C79.3013 28.5514 79.2518 30.7168 79.4489 33.2761V33.818C79.4489 34.8522 79.2529 34.9007 78.0254 34.9007H75.1278C73.6548 34.9007 73.6548 34.8522 73.6548 33.7695ZM68.1546 14.6698C69.6772 14.6698 71.2977 14.6201 72.6232 13.4877C72.9667 12.0122 73.1638 10.2883 73.1638 8.61515C73.1638 7.62955 73.1142 6.64625 72.7707 5.51275C72.5252 4.62651 71.9847 4.5283 70.8067 4.43008C70.3641 4.3804 70.0702 4.3804 69.6772 4.3804C69.1862 4.3804 68.1546 4.3804 67.7132 4.43008C66.6332 4.47861 66.5352 4.62651 66.5352 5.16842V6.00613C66.4373 8.12177 66.4373 13.2913 66.4373 13.2913V14.129C66.4373 14.4733 66.5848 14.6709 67.3213 14.6709H68.1558L68.1546 14.6698Z" fill="#231F20"/>
<path d="M96.0465 33.8191L82.6418 33.7694C81.5618 33.7694 81.4639 33.7198 81.4639 32.5886V2.51082C81.4639 1.82101 81.5123 1.77248 82.6914 1.7228L94.7705 1.427H95.0656C95.9496 1.427 95.9001 1.5749 95.9496 2.31439C96.0476 3.29885 96.0972 3.9875 96.0972 5.31743C96.0972 5.90787 96.0476 5.90787 95.3607 5.90787H87.7005C86.7185 5.90787 86.7185 6.00724 86.7185 6.69589V14.0307C86.7185 14.3762 86.8165 14.4248 87.553 14.4248L94.9676 14.4744C95.7537 14.4744 95.9012 14.4744 95.9012 14.8188V15.2128L95.6557 18.3637C95.5904 18.7905 95.2796 19.0204 94.7233 19.0535L88.3886 19.2511C87.7005 19.2511 87.6521 19.2996 87.6521 19.6937V19.8912L87.7005 27.9147C87.7005 28.6531 87.7005 28.7028 88.6825 28.7028L96.3911 28.7513C97.2256 28.7513 97.2751 28.8507 97.2751 29.2932V32.9352C97.2751 33.8226 97.2256 33.8226 96.0476 33.8226L96.0465 33.8191Z" fill="#231F20"/>
<path d="M102.185 2.11683C104.493 2.16651 104.247 2.46115 104.493 3.98752C105.425 10.0906 106.506 18.3117 107.291 24.4657C107.487 26.0891 107.487 25.9424 107.832 24.5142L112.939 2.36294C112.939 1.72282 113.676 1.37849 114.265 1.37849L117.554 1.23059H117.947C118.635 1.23059 118.881 1.3288 118.881 1.72282C118.881 1.82103 118.832 1.87071 118.832 2.01861C116.426 12.1092 114.315 23.9735 110.927 33.818C110.633 34.7528 110.681 34.8521 109.012 34.8521H105.232C103.906 34.8024 103.709 34.7042 103.513 33.818L98.7011 3.5935C98.6031 3.34739 98.5547 3.14981 98.5547 2.95338C98.5547 2.50968 98.8982 2.16536 100.421 2.11567H102.189L102.185 2.11683Z" fill="#231F20"/>
<path d="M124.232 2.36286C125.755 2.41255 125.902 2.56044 125.902 3.44668V32.5388C125.902 34.0652 125.657 33.9658 123.889 34.1634L122.023 34.361C121.581 34.4095 121.188 34.4592 120.894 34.4592C120.256 34.4592 120.256 34.1634 120.256 33.1304V3.20057C120.256 2.51076 120.452 2.31433 121.581 2.31433H122.023L124.232 2.36286Z" fill="#231F20"/>
<path d="M142.941 33.8191L129.535 33.7694C128.455 33.7694 128.357 33.7198 128.357 32.5886V2.51082C128.357 1.82101 128.407 1.77248 129.585 1.7228L141.664 1.427H141.958C142.842 1.427 142.794 1.5749 142.842 2.31439C142.94 3.29885 142.99 3.9875 142.99 5.31743C142.99 5.90787 142.941 5.90787 142.253 5.90787H134.593C133.611 5.90787 133.611 6.00724 133.611 6.69589V14.0307C133.611 14.3762 133.709 14.4248 134.445 14.4248L141.86 14.4744C142.646 14.4744 142.794 14.4744 142.794 14.8188V15.2128L142.548 18.3637C142.483 18.7905 142.172 19.0204 141.615 19.0535L135.28 19.2511C134.593 19.2511 134.543 19.2996 134.543 19.6937V19.8912L134.592 27.9147C134.592 28.6531 134.592 28.7028 135.574 28.7028L143.282 28.7513C144.118 28.7513 144.166 28.8507 144.166 29.2932V32.9352C144.166 33.8226 144.118 33.8226 142.939 33.8226L142.941 33.8191Z" fill="#231F20"/>
<path d="M178.934 2.21504C178.934 2.75695 178.738 3.29886 178.59 3.78993C176.233 13.6841 173.631 23.5298 172.551 33.5222C172.501 34.4084 172.158 34.3102 171.225 34.4581C170.194 34.6545 169.162 34.8024 168.18 34.8024C167.444 34.8024 166.805 34.7528 166.118 34.5563C165.283 34.3102 165.185 34.1623 165.087 33.3258C164.301 27.8616 163.123 22.3489 161.846 16.9333C161.65 16.1949 161.502 15.2602 161.453 15.2602C161.305 15.2602 161.159 16.2458 161.011 16.983C160.078 22.2507 159.44 27.4179 158.311 32.7353C158.115 33.6216 158.065 33.7695 156.788 33.8665C156.15 33.9162 155.463 33.9162 154.824 33.9162C153.792 33.9162 152.86 33.9162 151.878 33.8665C150.355 33.818 150.553 33.4725 150.355 32.4395L145.298 3.64319V3.49529C145.298 2.95338 145.641 2.70726 146.574 2.6079H149.471C150.797 2.6079 150.649 2.85516 150.797 3.69172C151.73 9.10735 152.711 17.2291 153.595 22.7914C153.693 23.3819 154.184 24.6125 154.282 24.6125C154.38 24.6125 154.725 23.3334 154.97 22.6435C156.246 18.3603 157.671 8.6625 159.096 4.13426C159.389 3.19833 159.587 3.19833 160.814 3.00191C161.501 2.90369 162.435 2.70726 163.219 2.70726C163.76 2.70726 163.76 2.90369 163.858 3.39592C165.381 9.59842 166.608 17.4255 168.229 23.4316C168.425 24.022 168.523 24.2681 168.523 24.2681C168.621 24.2681 168.719 23.9735 168.916 23.3334C170.389 17.1794 171.764 8.81155 173.089 2.55937C173.285 1.62344 173.237 1.28027 174.907 1.28027C175.938 1.28027 177.018 1.42702 177.46 1.42702C178.687 1.52639 178.934 1.42702 178.934 2.21504Z" fill="#231F20"/>
<path d="M180.604 24.9579V23.8741C180.654 22.7429 180.654 22.6932 182.077 22.595L185.907 22.3489C186.3 22.2992 186.546 22.2992 186.84 22.2992C187.576 22.2992 187.626 22.4968 187.626 23.4315V29.1904C187.626 29.6826 187.674 29.9784 188.067 30.1748C188.608 30.4706 189.148 30.5688 189.688 30.5688C190.67 30.5688 191.897 30.4706 192.879 30.2245C193.861 29.9784 193.959 28.9939 193.959 28.1077C193.959 24.7615 192.536 21.9052 189.295 20.6746C188.018 20.1824 186.742 19.7387 185.66 19.1483C181.732 17.0326 179.424 13.9302 179.424 9.89419C179.424 8.66363 179.621 7.38338 180.062 5.95639C181.338 2.16649 184.972 0 190.275 0C198.279 0 199.998 5.66059 199.998 11.0265C199.998 11.8146 199.949 12.5032 199.802 13.2912C199.753 13.7349 199.409 13.8332 198.967 13.8332C198.672 13.8332 198.427 13.7835 198.083 13.7835L196.168 13.587C194.547 13.4877 194.547 13.6356 194.547 12.16C194.449 9.45165 193.663 3.84074 189.833 3.84074C186.346 3.84074 185.217 7.92645 185.217 10.1911C185.217 14.523 188.506 15.311 192.19 16.8362C196.952 18.7554 199.064 21.9063 199.064 26.5836C199.064 31.752 195.333 35.0012 188.949 35.0012C182.909 35.0012 180.601 29.8813 180.601 24.9591L180.604 24.9579Z" fill="#231F20"/>
</g>
<defs>
<clipPath id="clip0_74_246">
<rect width="200" height="35" fill="white"/>
</clipPath>
</defs>
</svg>
