<svg width="293" height="35" viewBox="0 0 293 35" fill="none" xmlns="http://www.w3.org/2000/svg">
<g clip-path="url(#clip0_83_321)">
<path d="M0.488295 34.6088C0.146718 34.6088 0.146718 34.5112 0.146718 33.9731L0 2.05278C0 1.46529 0.0481418 1.46529 0.732443 1.4171L5.37125 1.02583C5.56611 1.02583 5.71282 0.97649 5.85954 0.97649C6.10369 0.97649 6.20112 1.07402 6.29855 1.4171L10.6451 13.3446C10.7918 13.7359 10.9374 13.8828 11.0841 13.8828C11.2789 13.8828 11.3764 13.5408 11.7191 13.1496C14.4047 9.97118 17.237 3.17726 18.4085 1.02698C18.6045 0.635704 18.7501 0.586365 19.2877 0.586365H23.7797C24.4148 0.586365 24.5122 0.635704 24.5122 0.977638V1.27138L24.4148 33.3867C24.4148 34.1693 24.268 34.1211 23.2926 34.1693L19.2395 34.4148C19.0447 34.4148 18.8979 34.463 18.7994 34.463C18.4085 34.463 18.3111 34.3655 18.3111 34.0718V33.8274L19.0435 9.82546C16.7488 13.589 14.2087 17.4031 11.9139 20.8247C11.5724 21.2642 11.4749 21.4604 11.2789 21.4604C11.0829 21.4604 10.8399 21.2642 10.6439 20.9716L4.58837 11.2425L4.6858 33.8767V34.0236C4.6858 34.5606 4.24679 34.6099 3.7585 34.6099L0.488295 34.6088Z" fill="#231F20"/>
<path d="M31.1066 1.9552C32.0843 2.00339 32.1817 2.05273 32.1817 2.63906V2.88347L32.2299 31.6277V32.1165C32.2299 32.5571 32.0843 32.6053 31.2533 32.704L27.9819 33.1434H27.4936C27.0053 33.1434 26.9561 32.9966 26.9561 32.5571V3.12902C26.9561 2.05273 26.9561 1.85767 27.9819 1.85767H28.7144L31.1066 1.95634V1.9552Z" fill="#231F20"/>
<path d="M50.298 14.469C49.8097 14.469 49.1747 14.3704 48.6864 14.3222C47.6112 14.126 47.6605 13.8816 47.4657 12.9533C47.2708 11.7324 47.3682 10.4117 47.0267 9.18972C46.5384 7.77265 46.0489 4.39921 43.2177 4.39921C42.6802 4.39921 42.1919 4.49674 41.7529 4.69295C39.849 5.91381 39.3607 7.38138 39.1647 9.43412V9.7772C39.1647 12.9062 43.1203 14.7628 46.6851 15.7886C51.9589 17.4019 53.8628 20.7271 53.8628 24.8326C53.8628 27.9123 52.2512 30.6983 49.0773 32.6535C47.7591 33.4854 46.0489 33.9237 44.4385 33.9237C43.4126 33.9237 42.3386 33.7768 41.2153 33.4349C35.9415 31.9203 34.2324 28.0087 34.2324 23.707C34.2324 22.68 34.2806 21.5556 34.4766 20.4322C34.6714 19.4535 34.8674 19.4535 35.8922 19.4535C36.7232 19.4535 37.6012 19.6003 38.4322 19.7472C39.5544 19.9434 39.7504 19.8941 39.7504 21.0174C39.8478 24.1464 39.8971 28.4975 43.3152 28.6914C46.1475 28.6914 47.8565 27.2743 47.8565 25.0265C47.8565 24.1946 47.6617 23.1688 47.319 22.0432C46.5865 19.7954 42.7776 19.4041 40.4828 18.3783C37.3089 16.9601 34.8181 14.6136 34.8181 11.5833C34.8181 5.61893 38.2362 1.12215 45.1216 1.07281C51.1772 1.07281 53.2771 5.96201 53.2771 10.6056C53.2771 11.4375 53.2278 12.414 53.0329 13.2459C52.8381 14.0778 52.8874 14.1753 51.9096 14.3222C51.3732 14.3704 50.8356 14.469 50.298 14.469Z" fill="#231F20"/>
<path d="M71.2961 14.469C70.8078 14.469 70.1728 14.3704 69.6845 14.3222C68.6093 14.126 68.6586 13.8816 68.4637 12.9533C68.2689 11.7324 68.3663 10.4117 68.0247 9.18972C67.5364 7.77265 67.047 4.39921 64.2158 4.39921C63.6782 4.39921 63.1899 4.49674 62.7509 4.69295C60.847 5.91381 60.3587 7.38138 60.1627 9.43412V9.7772C60.1627 12.9062 64.1184 14.7628 67.6831 15.7886C72.957 17.4019 74.8608 20.7271 74.8608 24.8326C74.8608 27.9123 73.2492 30.6983 70.0753 32.6535C68.7572 33.4854 67.047 33.9237 65.4365 33.9237C64.4107 33.9237 63.3366 33.7768 62.2133 33.4349C56.9395 31.9203 55.2305 28.0087 55.2305 23.707C55.2305 22.68 55.2786 21.5556 55.4746 20.4322C55.6695 19.4535 55.8655 19.4535 56.8902 19.4535C57.7212 19.4535 58.5992 19.6003 59.4303 19.7472C60.5524 19.9434 60.7484 19.8941 60.7484 21.0174C60.8459 24.1464 60.8952 28.4975 64.3132 28.6914C67.1456 28.6914 68.8546 27.2743 68.8546 25.0265C68.8546 24.1946 68.6597 23.1688 68.317 22.0432C67.5846 19.7954 63.7756 19.4041 61.4809 18.3783C58.307 16.9601 55.8162 14.6136 55.8162 11.5833C55.8162 5.61893 59.2343 1.12215 66.1197 1.07281C72.1752 1.07281 74.2751 5.96201 74.2751 10.6056C74.2751 11.4375 74.2258 12.414 74.031 13.2459C73.8361 14.0778 73.8854 14.1753 72.9077 14.3222C72.3712 14.3704 71.8337 14.469 71.2961 14.469Z" fill="#231F20"/>
<path d="M80.8186 1.9552C81.7952 2.00339 81.8927 2.05273 81.8927 2.63906V2.88347L81.9408 31.6277V32.1165C81.9408 32.5571 81.7941 32.6053 80.9642 32.704L77.6929 33.1434H77.2046C76.7163 33.1434 76.667 32.9966 76.667 32.5571V3.12902C76.667 2.05273 76.667 1.85767 77.6929 1.85767H78.4253L80.8186 1.95634V1.9552Z" fill="#231F20"/>
<path d="M94.4922 34.5594C85.2627 34.5594 84.042 24.7821 84.042 18.819C84.042 11.7313 84.6277 0.244385 95.6155 0.244385C104.601 0.244385 105.333 9.92294 105.333 18.0869C105.333 25.6152 104.992 34.5594 94.4922 34.5594ZM90.2924 27.5692C90.8288 29.1825 91.8054 29.4269 93.3196 29.4269C93.9053 29.4269 94.491 29.4269 95.2246 29.3776C98.2037 29.1825 98.3986 28.3013 98.5453 26.7867C98.8376 23.0725 98.9843 20.4322 98.9843 17.4501C98.9843 15.0542 98.9361 12.0239 98.7401 8.84665C98.5934 6.50016 98.3986 4.49561 95.3221 4.49561H95.2246C92.5872 4.49561 91.7573 4.49561 90.9274 7.28271C89.9015 10.7525 89.56 16.9131 89.56 18.7214C89.56 19.9916 89.7055 26.0546 90.2924 27.5692Z" fill="#231F20"/>
<path d="M108.8 33.6323C108.361 33.6323 107.53 33.4854 107.53 32.8979V1.56395C107.53 1.12333 107.628 1.074 108.409 1.074H111.633C112.903 1.074 112.903 1.22087 113.147 1.90588C116.077 9.09222 118.567 15.8873 121.741 22.9256C121.888 23.2676 122.132 23.4144 122.327 23.4144C122.571 23.4144 122.718 23.2182 122.718 22.7294V0.488807C122.718 0.195066 122.865 0.0975342 123.548 0.0975342H127.307C128.089 0.0975342 128.187 0.0975342 128.187 0.488807L128.381 32.8497C128.381 33.4361 128.235 33.4361 127.113 33.4361C125.159 33.4361 124.622 33.3867 122.522 33.3867C121.204 33.3867 121.35 33.1423 121.057 32.4091C119.445 28.0581 117.98 23.3651 115.978 19.1127C115.051 17.1575 114.612 15.1047 113.537 13.1495C113.342 12.8064 113.243 12.6114 113.146 12.6114C113.048 12.6114 113.048 15.5442 113.048 18.134V21.7518C113.048 25.3192 113.096 28.9381 113.096 32.3104C113.096 32.9943 112.95 33.0436 112.168 33.1905C110.41 33.5324 109.922 33.5818 108.799 33.6311L108.8 33.6323Z" fill="#231F20"/>
<path d="M154.557 11.0474V10.2649C154.655 9.1886 154.703 8.26033 154.703 7.47779C154.703 5.08311 154.166 4.15484 151.822 4.15484C149.185 4.15484 148.062 5.6201 148.062 7.96659C148.062 10.7044 150.064 13.1495 151.626 14.8603C153.433 16.9131 155.142 19.7977 157.926 22.6319C157.974 22.1431 157.974 21.6049 157.974 21.0679V18.3302C157.974 17.9389 158.072 17.7427 158.903 17.7427C160.123 17.6945 160.905 17.6451 162.077 17.6451C163.248 17.6451 163.395 18.0858 163.395 19.1116C163.395 21.3605 163.151 24.9279 161.93 27.4706C163.786 29.3283 165.495 30.9404 166.715 31.9192C167.154 32.2611 167.497 32.6524 167.497 32.9943C167.497 33.3856 166.959 33.6793 165.397 33.6793H162.467C160.758 33.6793 160.562 32.7992 159.732 32.0672C159.44 31.871 159.196 31.6759 158.903 31.4303C156.949 33.0436 155.143 34.0706 151.09 34.0706C145.034 34.0706 140.151 28.6926 140.151 24.0501C140.151 18.5264 142.251 16.7169 144.498 14.2247C142.252 12.1719 142.154 10.4129 142.154 8.01708V7.62581C142.154 3.76471 144.595 0 151.725 0C159.587 0 160.759 3.12904 160.759 7.62581C160.759 8.45769 160.759 9.33662 160.71 10.2167C160.613 11.293 160.563 11.7806 159.295 11.7806C158.074 11.7806 156.804 11.7325 155.583 11.6831C154.704 11.6338 154.557 11.4387 154.557 11.0474ZM147.769 18.3806C146.646 19.4558 146.108 21.2159 146.108 23.0243C146.108 24.392 145.913 25.7127 145.913 26.7879C145.913 28.2543 146.352 29.2812 148.062 29.3306L153.579 29.4763C155.435 29.2812 155.239 28.7924 156.265 28.011C153.335 25.0288 150.161 20.8729 147.768 18.3806H147.769Z" fill="#231F20"/>
<path d="M191.719 13.0027C192.549 9.38598 192.745 6.20761 193.136 2.93285C193.184 2.34651 193.38 2.3947 194.063 2.29717C195.626 2.05277 197.287 1.95524 198.8 1.80837H199.141C199.435 1.80837 199.532 1.85656 199.532 2.00343C199.532 2.10096 199.532 2.24783 199.435 2.3947C197.237 12.4152 194.698 23.4144 193.575 31.4809V32.1659C193.575 33.5829 191.426 33.4361 190.304 33.4854C188.595 33.5336 188.301 33.5829 186.935 33.6805H186.788C185.617 33.6805 185.421 32.3609 185.226 31.334L177.56 2.29717C177.56 2.19964 177.512 2.19964 177.512 2.10096C177.512 1.75903 177.756 1.51462 178.293 1.36775C179.856 0.976481 181.174 0.878949 182.688 0.732079C182.982 0.682739 183.226 0.682739 183.323 0.682739C183.665 0.682739 183.665 0.781418 183.811 1.27022C185.374 8.89603 186.692 17.4019 188.792 24.7822L189.036 26.1511C189.085 26.1511 189.329 24.8808 189.378 24.5871C190.354 21.7025 191.136 16.375 191.722 13.0015L191.719 13.0027Z" fill="#231F20"/>
<path d="M214.965 34.9025C214.574 34.9507 214.28 35 214.084 35C213.596 35 213.498 34.805 213.401 34.0706L211.448 22.7788C211.35 21.8987 211.253 21.7518 210.227 21.7518H209.836L205.539 21.8494C204.416 21.8494 204.464 21.9469 204.416 22.7294C204.122 25.8585 203.781 28.9382 203.537 32.0672C203.488 33.1423 203.537 33.3374 202.024 33.3856L198.508 33.4843H198.166C197.531 33.4843 197.385 33.3856 197.385 33.1412C197.385 32.9943 197.385 32.7993 197.433 32.4573C199.093 22.485 200.851 11.2414 202.609 1.56282C202.707 0.730939 202.903 0.633408 203.927 0.633408H205.148C206.857 0.633408 210.227 0.534729 211.788 0.534729C214.182 0.534729 214.377 0.584068 214.573 2.14801C215.158 6.74346 215.744 11.4364 216.232 15.7863C216.818 21.1643 217.941 28.0076 218.674 33.5313C218.723 33.8251 218.723 34.0213 218.723 34.167C218.723 34.5101 218.527 34.5583 217.745 34.6569L214.962 34.9013L214.965 34.9025ZM205.295 15.8873V16.2786C205.295 16.4737 205.343 16.5712 205.93 16.5712H209.934C210.259 16.5712 210.422 16.5062 210.422 16.3761V15.8873L209.543 6.20761C209.495 5.57194 208.957 5.5226 208.566 5.5226H207.687C207.199 5.5226 206.857 5.57194 206.76 6.06074C206.027 9.09225 205.636 12.4163 205.295 15.8873Z" fill="#231F20"/>
<path d="M220.239 1.95524C220.239 1.27022 220.239 1.12335 220.923 1.12335C222.192 1.12335 223.56 1.22088 224.878 1.27022C225.708 1.27022 225.855 1.31841 225.855 1.80837V2.1503L225.415 26.2991V26.6903C225.415 27.2767 225.611 27.326 226.636 27.3754C228.882 27.4729 230.591 27.5211 232.251 27.5211C232.739 27.5211 233.033 27.6198 233.082 28.2554L233.277 32.0683V32.4103C233.277 32.9484 232.691 33.046 231.715 33.0953L221.118 33.2422C220.629 33.2422 220.092 33.1928 220.092 32.8509V32.5078L220.239 1.95638V1.95524Z" fill="#231F20"/>
<path d="M248.415 1.61216L252.224 1.56396C252.958 1.56396 252.958 1.61216 252.958 2.1503L252.859 21.1173C252.517 27.863 251.346 33.7287 243.972 33.7287C234.06 33.7287 234.06 25.7609 234.06 17.1082C234.06 13.0027 234.254 6.06074 234.792 3.07857C234.939 2.44289 234.939 2.39356 235.818 2.34536C237.039 2.29602 237.967 2.24668 239.187 2.24668C239.578 2.24668 239.627 2.24668 239.627 2.49109V2.98104C239.285 6.15827 239.285 11.5845 239.285 16.0812V18.134C239.285 21.5556 239.383 24.8315 239.92 27.2755C239.985 27.6022 240.262 27.7655 240.75 27.7655L245.976 27.8137C246.758 27.8137 246.855 27.6668 247.099 27.3249C247.636 26.5917 247.685 25.8103 247.685 25.0277V2.19964C247.685 1.6615 247.685 1.61216 248.417 1.61216H248.415Z" fill="#231F20"/>
<path d="M270.44 1.85656C271.368 1.85656 271.611 1.85656 271.611 2.24784C271.611 2.34652 271.562 2.49224 271.562 2.68845L271.415 5.71995C271.269 6.64937 271.367 6.64937 269.951 6.64937H262.43C261.6 6.64937 261.453 6.79509 261.453 7.18637V7.72451L261.404 12.8581V13.2494C261.404 13.69 261.453 13.7382 262.43 13.7382H269.511C270.293 13.7382 270.44 13.7875 270.44 14.6183V16.9647C270.44 18.1868 270.44 18.2361 268.828 18.2843C267.949 18.3336 267.071 18.3336 265.996 18.3336H261.552C260.623 18.3336 260.477 18.383 260.477 19.3112L260.428 26.3025C260.428 27.5727 260.428 27.5234 262.039 27.5727L271.024 27.964C272.294 28.0133 272.342 28.0133 272.342 29.0403V32.3632C272.342 33.3902 272.342 33.4395 270.976 33.4395H256.669C255.351 33.4395 255.545 33.342 255.497 32.4126L255.351 2.69189C255.351 1.81181 255.448 1.71313 256.132 1.71313H257.061L270.441 1.86001L270.44 1.85656Z" fill="#231F20"/>
<path d="M289.437 14.469C288.948 14.469 288.313 14.3704 287.825 14.3222C286.75 14.126 286.799 13.8816 286.606 12.9533C286.409 11.7324 286.507 10.4117 286.165 9.18972C285.677 7.77265 285.188 4.39921 282.356 4.39921C281.819 4.39921 281.331 4.49674 280.892 4.69295C278.988 5.91381 278.499 7.38138 278.303 9.43412V9.7772C278.303 12.9062 282.259 14.7628 285.825 15.7886C291.099 17.4019 293.003 20.7271 293.003 24.8326C293.003 27.9123 291.392 30.6983 288.217 32.6535C286.899 33.4854 285.189 33.9237 283.578 33.9237C282.552 33.9237 281.478 33.7768 280.355 33.4349C275.08 31.9203 273.371 28.0087 273.371 23.707C273.371 22.68 273.42 21.5556 273.615 20.4322C273.811 19.4535 274.006 19.4535 275.031 19.4535C275.862 19.4535 276.74 19.6003 277.571 19.7472C278.693 19.9434 278.889 19.8941 278.889 21.0174C278.987 24.1464 279.036 28.4975 282.453 28.6914C285.286 28.6914 286.995 27.2743 286.995 25.0265C286.995 24.1946 286.799 23.1688 286.458 22.0432C285.724 19.7954 281.916 19.4041 279.62 18.3783C276.446 16.9601 273.957 14.6136 273.957 11.5833C273.957 5.61893 277.374 1.12215 284.26 1.07281C290.315 1.07281 292.415 5.96201 292.415 10.6056C292.415 11.4375 292.365 12.414 292.17 13.2459C291.974 14.0778 292.024 14.1753 291.047 14.3222C290.511 14.3704 289.973 14.469 289.437 14.469Z" fill="#231F20"/>
</g>
<defs>
<clipPath id="clip0_83_321">
<rect width="293" height="35" fill="white"/>
</clipPath>
</defs>
</svg>
