<svg width="252" height="42" viewBox="0 0 252 42" fill="none" xmlns="http://www.w3.org/2000/svg">
<g clip-path="url(#clip0_74_258)">
<path d="M6.01737 31.488C6.01737 32.7662 6.01737 32.8128 4.26476 32.8128H0.947477C0.0945253 32.8128 0.142344 32.7184 0.0945253 31.6303L0 1.70491C0.0467066 0.615702 -0.141232 0.426758 1.13653 0.426758C3.50522 0.426758 6.96373 0.47455 9.38025 0.615702C12.7909 0.852437 15.4443 2.46291 16.1071 5.067C16.4385 6.29735 16.6287 7.52994 16.6287 8.76029C16.6287 13.5428 13.407 17.2828 7.15279 17.6618C6.45738 17.6936 6.10967 17.9782 6.10967 18.5154L6.01515 31.4891L6.01737 31.488ZM5.68486 3.78774C5.02207 3.78774 4.97425 3.88221 4.97425 4.40347V4.688L5.1166 12.5959C5.1166 13.116 5.1166 13.2583 5.54363 13.2583C9.57041 13.2583 11.3708 10.3697 11.3708 8.28682C11.3708 4.688 9.5693 3.78774 5.68486 3.78774Z" fill="#231F20"/>
<path d="M31.0319 32.4828C30.9852 29.074 30.6527 24.765 29.137 20.267C28.4742 19.5557 26.2945 19.319 24.92 19.2245C24.5886 19.2245 24.2572 19.1767 24.0671 19.1767C23.5466 19.1767 23.451 19.2245 23.451 19.509C23.451 19.6513 23.451 19.888 23.4988 20.2192L23.64 21.1673C24.2561 24.6227 24.1616 29.0262 24.2083 31.7259V32.3894C24.2083 33.2419 24.0192 33.1941 22.3612 33.2419C21.3181 33.2897 20.9867 33.3364 19.9925 33.3364C18.7136 33.3364 18.5234 33.1474 18.5234 32.3894V1.70495C18.5234 0.37901 18.618 0.37901 20.4184 0.236746C21.6027 0.142274 22.171 0.0944824 23.3565 0.0944824C25.6773 0.0944824 27.9048 0.284538 29.8943 0.663537C34.9642 1.65827 36.2909 4.26236 36.2909 8.33355V8.38134C36.2909 10.6064 36.243 13.1161 34.6328 14.3942C32.69 15.9569 28.9946 16.4303 28.4731 16.8093C29.3727 16.8093 31.3155 17.4729 33.0203 18.0875C33.9211 18.4187 34.3937 18.8933 34.774 19.6024C35.5791 21.2117 35.5791 22.5388 35.9572 24.5749C36.4788 27.4636 36.431 29.5464 36.6211 32.0082V32.5295C36.6211 33.5242 36.431 33.5709 35.2477 33.5709H32.452C31.0308 33.5709 31.0308 33.5242 31.0308 32.4828H31.0319ZM25.7252 14.1108C27.1942 14.1108 28.7577 14.063 30.0366 12.9738C30.368 11.5545 30.5582 9.89622 30.5582 8.28687C30.5582 7.33881 30.5104 6.39298 30.179 5.30266C29.9421 4.45019 29.4205 4.35572 28.284 4.26125C27.857 4.21346 27.5734 4.21346 27.1942 4.21346C26.7204 4.21346 25.7252 4.21346 25.2992 4.26125C24.2572 4.30793 24.1627 4.45019 24.1627 4.97146V5.77725C24.0682 7.81228 24.0682 12.7848 24.0682 12.7848V13.5906C24.0682 13.9218 24.2105 14.1119 24.9211 14.1119H25.7263L25.7252 14.1108Z" fill="#231F20"/>
<path d="M52.6362 32.5306L39.7029 32.4828C38.6598 32.4828 38.5664 32.4351 38.5664 31.347V2.41521C38.5664 1.75168 38.6131 1.705 39.7496 1.65721L51.4041 1.37268H51.6887C52.5417 1.37268 52.4939 1.51494 52.5417 2.22626C52.6362 3.1732 52.684 3.83562 52.684 5.11488C52.684 5.68282 52.6362 5.68282 51.9734 5.68282H44.5827C43.6352 5.68282 43.6352 5.77841 43.6352 6.44082V13.4962C43.6352 13.8285 43.7297 13.8752 44.4403 13.8752L51.5942 13.923C52.3526 13.923 52.495 13.923 52.495 14.2542V14.6332L52.2581 17.6641C52.1951 18.0746 51.8948 18.2958 51.3573 18.3276L45.2466 18.5177C44.5827 18.5177 44.5348 18.5643 44.5348 18.9433V19.1334L44.5827 26.8512C44.5827 27.5614 44.5827 27.6092 45.5301 27.6092L52.9687 27.6559C53.7739 27.6559 53.8217 27.7515 53.8217 28.1771V31.6804C53.8217 32.534 53.7739 32.534 52.6373 32.534L52.6362 32.5306Z" fill="#231F20"/>
<path d="M55.6217 24.007V22.9645C55.6685 21.8764 55.6685 21.8286 57.0418 21.7341L60.7372 21.4974C61.1164 21.4496 61.3533 21.4496 61.638 21.4496C62.3486 21.4496 62.3964 21.6396 62.3964 22.5388V28.0782C62.3964 28.5516 62.4442 28.8362 62.8235 29.0251C63.345 29.3096 63.8655 29.4041 64.3859 29.4041C65.3345 29.4041 66.5188 29.3096 67.4663 29.0729C68.4138 28.8362 68.5094 27.8892 68.5094 27.0368C68.5094 23.818 67.136 21.0706 64.0078 19.8869C62.7768 19.4134 61.5446 18.9866 60.5026 18.4187C56.7127 16.3837 54.4863 13.3995 54.4863 9.51721C54.4863 8.33354 54.6754 7.10207 55.1024 5.72944C56.3335 2.08394 59.8398 0 64.9564 0C72.6786 0 74.3378 5.44492 74.3378 10.6064C74.3378 11.3644 74.2899 12.0268 74.1476 12.7848C74.1009 13.2116 73.7684 13.3061 73.3425 13.3061C73.0578 13.3061 72.8209 13.2583 72.4884 13.2583L70.6413 13.0694C69.0777 12.9738 69.0777 13.116 69.0777 11.6967C68.9832 9.09153 68.2247 3.69441 64.5294 3.69441C61.1665 3.69441 60.0756 7.62444 60.0756 9.80285C60.0756 13.9696 63.2494 14.7276 66.8035 16.1947C71.3997 18.0408 73.437 21.0717 73.437 25.5708C73.437 30.5422 69.8361 33.6676 63.6775 33.6676C57.8503 33.6676 55.624 28.7428 55.624 24.0081L55.6217 24.007Z" fill="#231F20"/>
<path d="M76.9889 24.007V22.9645C77.0356 21.8764 77.0356 21.8286 78.4102 21.7341L82.1044 21.4974C82.4836 21.4496 82.7205 21.4496 83.0052 21.4496C83.7169 21.4496 83.7636 21.6396 83.7636 22.5388V28.0782C83.7636 28.5516 83.8114 28.8362 84.1906 29.0251C84.7122 29.3096 85.2338 29.4041 85.7531 29.4041C86.7017 29.4041 87.8849 29.3096 88.8335 29.0729C89.7821 28.8362 89.8766 27.8892 89.8766 27.0368C89.8766 23.818 88.5032 21.0706 85.375 19.8869C84.1439 19.4134 82.9118 18.9866 81.8698 18.4187C78.0799 16.3837 75.8535 13.3995 75.8535 9.51721C75.8535 8.33354 76.0426 7.10207 76.4696 5.72944C77.7007 2.08394 81.207 0 86.3236 0C94.0457 0 95.7049 5.44492 95.7049 10.6064C95.7049 11.3644 95.6571 12.0268 95.5148 12.7848C95.467 13.2116 95.1356 13.3061 94.7085 13.3061C94.425 13.3061 94.1881 13.2583 93.8556 13.2583L92.0084 13.0694C90.4449 12.9738 90.4449 13.116 90.4449 11.6967C90.3504 9.09153 89.5919 3.69441 85.8965 3.69441C82.5337 3.69441 81.4439 7.62444 81.4439 9.80285C81.4439 13.9696 84.6177 14.7276 88.1707 16.1947C92.7669 18.0408 94.8042 21.0717 94.8042 25.5708C94.8042 30.5422 91.2033 33.6676 85.0447 33.6676C79.2175 33.6676 76.9912 28.7428 76.9912 24.0081L76.9889 24.007Z" fill="#231F20"/>
<path d="M111.052 2.27288C112.521 2.32067 112.663 2.46293 112.663 3.3154V31.2991C112.663 32.7673 112.426 32.6717 110.721 32.8618L108.921 33.0518C108.495 33.0985 108.114 33.1463 107.832 33.1463C107.216 33.1463 107.216 32.8618 107.216 31.8682V3.07867C107.216 2.41514 107.405 2.2262 108.495 2.2262H108.921L111.052 2.27288Z" fill="#231F20"/>
<path d="M129.102 2.13057V1.89383C129.102 0.946891 129.15 0.8991 130.618 0.851308L132.182 0.756836H133.177C134.22 0.756836 134.313 0.899099 134.313 2.08278V3.02972C134.408 9.42269 134.408 15.8623 134.456 22.2542L134.55 29.972V30.73C134.55 31.7725 134.408 31.9126 132.276 31.9126H130.239C127.349 31.9126 127.681 31.4391 127.16 29.7819C125.311 24.0536 121.947 16.856 120.147 11.0798C120.052 11.6478 120.005 12.4525 120.005 13.3049C120.005 14.7253 120.1 16.288 120.1 17.2816C120.1 21.9697 120.147 26.7055 120.147 31.4391V32.5283C120.147 33.333 119.958 33.3808 117.967 33.3808H117.068C115.219 33.3808 115.03 33.0962 115.03 32.2449V1.98942C115.03 1.2781 115.219 1.08915 116.641 1.08915H119.625C121.474 1.08915 121.283 1.2781 121.663 2.41398C123.226 6.81749 125.974 16.3347 128.722 21.6385C128.959 22.0175 129.007 22.2542 129.149 22.2542C129.197 22.2542 129.291 21.923 129.291 20.9761V19.888C129.291 13.9696 129.102 8.00339 129.102 2.13057Z" fill="#231F20"/>
<path d="M137.821 27.2734C137.015 24.8583 136.637 22.4443 136.589 19.9813C136.589 19.0333 136.542 18.1352 136.542 17.1872C136.542 14.6776 136.637 11.4111 137.253 8.94812C137.726 6.72302 138.911 4.78135 140.758 3.07752C142.227 1.7049 144.453 0.946899 146.964 0.946899C153.977 0.946899 155.587 6.20287 156.487 10.2752C157.055 12.8793 157.245 16.2414 157.245 18.8932V20.8816C157.197 22.9177 156.818 24.8116 155.824 26.7055C154.688 29.0251 152.461 31.3935 150.234 32.6706C149.95 33.4286 147.865 36.3172 147.865 38.3055C147.865 39.4881 148.339 40.2461 150.234 40.2461C152.176 40.2461 154.071 39.7726 154.071 38.4945C154.071 36.4583 150.045 38.4945 150.045 35.8426C150.045 34.281 151.37 33.4753 153.455 33.4753C156.155 33.4753 156.866 35.2747 156.866 36.9785C156.866 40.3873 154.686 41.9988 150.612 41.9988C147.391 41.9988 145.401 40.7207 145.401 38.2578C145.401 36.8851 147.248 34.849 147.485 33.4275H145.495C141.326 33.4275 138.815 30.4455 137.821 27.2734ZM150.991 23.9603C150.991 19.2244 150.849 13.7317 150.044 9.04481C149.759 7.43434 149.711 4.83025 147.153 4.83025C145.969 4.83025 144.783 4.97252 143.885 5.35151C142.795 5.73051 142.606 6.06172 142.416 7.29319C142.085 10.8431 141.657 15.1999 141.657 18.7521C141.657 21.4506 141.848 24.1492 142.416 26.8489C142.606 27.7958 142.795 27.7958 143.837 27.7958H147.342C146.821 26.2809 146.442 25.2862 144.642 23.5346C144.594 23.4868 144.594 23.3923 144.594 23.3445C144.594 23.1556 145.116 23.0133 145.401 23.0133C145.874 23.0133 146.206 23.2501 146.489 23.4868C148.527 24.9072 149.332 26.3287 149.9 27.6069C150.279 27.369 150.422 26.9911 150.611 26.471C150.848 25.713 150.99 24.9083 150.99 23.9614L150.991 23.9603Z" fill="#231F20"/>
<path d="M168.804 29.8787C172.5 29.8787 172.927 25.333 172.927 21.2607V16.3837C172.927 11.2211 172.642 6.58196 172.548 3.97787C172.548 3.5044 172.5 3.17208 172.5 2.93535C172.5 2.31961 172.737 2.27182 174.015 2.17735L177.426 1.89282H177.616C178.09 1.89282 178.09 2.17735 178.138 3.17097C178.185 4.63807 178.185 6.57974 178.185 9.08936C178.185 13.3984 178.28 17.9442 178.28 22.3477C178.28 28.8818 177.284 33.8543 168.851 33.8543C164.776 33.8543 161.792 32.1027 160.465 28.6451C159.66 26.42 159.33 23.8159 159.187 21.4474C159.139 19.459 159.045 15.9558 159.045 13.3517V5.30159C159.045 4.07123 159.139 3.59776 160.418 3.59776H164.114C164.493 3.59776 164.587 3.74003 164.587 4.16571C164.587 8.617 164.73 12.736 164.73 17.2817C164.73 20.975 164.776 29.8776 168.803 29.8776L168.804 29.8787Z" fill="#231F20"/>
<path d="M184.392 2.27288C185.861 2.32067 186.003 2.46293 186.003 3.3154V31.2991C186.003 32.7673 185.766 32.6717 184.061 32.8618L182.26 33.0518C181.835 33.0985 181.454 33.1463 181.172 33.1463C180.556 33.1463 180.556 32.8618 180.556 31.8682V3.07867C180.556 2.41514 180.745 2.2262 181.835 2.2262H182.26L184.392 2.27288Z" fill="#231F20"/>
<path d="M200.879 32.4828C200.832 29.074 200.5 24.765 198.984 20.267C198.321 19.5557 196.141 19.319 194.768 19.2245C194.436 19.2245 194.104 19.1767 193.915 19.1767C193.393 19.1767 193.299 19.2245 193.299 19.509C193.299 19.6513 193.299 19.888 193.345 20.2192L193.488 21.1673C194.104 24.6227 194.009 29.0262 194.057 31.7259V32.3894C194.057 33.2419 193.867 33.1941 192.209 33.2419C191.167 33.2897 190.835 33.3364 189.84 33.3364C188.561 33.3364 188.372 33.1474 188.372 32.3894V1.70495C188.372 0.37901 188.467 0.37901 190.267 0.236746C191.45 0.142274 192.02 0.0944824 193.204 0.0944824C195.526 0.0944824 197.752 0.284538 199.743 0.663537C204.813 1.65827 206.138 4.26236 206.138 8.33355V8.38134C206.138 10.6064 206.091 13.1161 204.48 14.3942C202.539 15.9569 198.843 16.4303 198.322 16.8093C199.222 16.8093 201.164 17.4729 202.87 18.0875C203.771 18.4187 204.243 18.8933 204.623 19.6024C205.429 21.2117 205.429 22.5388 205.807 24.5749C206.329 27.4636 206.281 29.5464 206.47 32.0082V32.5295C206.47 33.5242 206.281 33.5709 205.096 33.5709H202.301C200.881 33.5709 200.881 33.5242 200.881 32.4828H200.879ZM195.574 14.1108C197.042 14.1108 198.606 14.063 199.884 12.9738C200.217 11.5545 200.406 9.89622 200.406 8.28687C200.406 7.33881 200.359 6.39298 200.026 5.30266C199.79 4.45019 199.268 4.35572 198.132 4.26125C197.706 4.21346 197.421 4.21346 197.043 4.21346C196.569 4.21346 195.575 4.21346 195.148 4.26125C194.105 4.30793 194.011 4.45019 194.011 4.97146V5.77725C193.917 7.81228 193.917 12.7848 193.917 12.7848V13.5906C193.917 13.9218 194.059 14.1119 194.77 14.1119H195.576L195.574 14.1108Z" fill="#231F20"/>
<path d="M212.25 2.27288C213.719 2.32067 213.861 2.46293 213.861 3.3154V31.2991C213.861 32.7673 213.623 32.6717 211.918 32.8618L210.118 33.0518C209.691 33.0985 209.313 33.1463 209.029 33.1463C208.413 33.1463 208.413 32.8618 208.413 31.8682V3.07867C208.413 2.41514 208.602 2.2262 209.691 2.2262H210.118L212.25 2.27288Z" fill="#231F20"/>
<path d="M230.3 32.5306L217.367 32.4828C216.324 32.4828 216.23 32.4351 216.23 31.347V2.41521C216.23 1.75168 216.277 1.705 217.414 1.65721L229.068 1.37268H229.353C230.206 1.37268 230.158 1.51494 230.206 2.22626C230.3 3.1732 230.348 3.83562 230.348 5.11488C230.348 5.68282 230.3 5.68282 229.637 5.68282H222.247C221.299 5.68282 221.299 5.77841 221.299 6.44082V13.4962C221.299 13.8285 221.394 13.8752 222.104 13.8752L229.258 13.923C230.017 13.923 230.159 13.923 230.159 14.2542V14.6332L229.922 17.6641C229.859 18.0746 229.559 18.2958 229.021 18.3276L222.911 18.5177C222.247 18.5177 222.199 18.5643 222.199 18.9433V19.1334L222.247 26.8512C222.247 27.5614 222.247 27.6092 223.194 27.6092L230.633 27.6559C231.438 27.6559 231.486 27.7515 231.486 28.1771V31.6804C231.486 32.534 231.438 32.534 230.301 32.534L230.3 32.5306Z" fill="#231F20"/>
<path d="M233.286 24.007V22.9645C233.333 21.8764 233.333 21.8286 234.707 21.7341L238.401 21.4974C238.781 21.4496 239.017 21.4496 239.302 21.4496C240.014 21.4496 240.06 21.6396 240.06 22.5388V28.0782C240.06 28.5516 240.108 28.8362 240.488 29.0251C241.009 29.3096 241.531 29.4041 242.05 29.4041C242.999 29.4041 244.182 29.3096 245.13 29.0729C246.079 28.8362 246.173 27.8892 246.173 27.0368C246.173 23.818 244.8 21.0706 241.672 19.8869C240.441 19.4134 239.209 18.9866 238.167 18.4187C234.377 16.3837 232.15 13.3995 232.15 9.51721C232.15 8.33354 232.339 7.10207 232.766 5.72944C233.998 2.08394 237.504 0 242.62 0C250.343 0 252.002 5.44492 252.002 10.6064C252.002 11.3644 251.954 12.0268 251.812 12.7848C251.764 13.2116 251.432 13.3061 251.005 13.3061C250.722 13.3061 250.485 13.2583 250.152 13.2583L248.305 13.0694C246.742 12.9738 246.742 13.116 246.742 11.6967C246.647 9.09153 245.889 3.69441 242.193 3.69441C238.831 3.69441 237.741 7.62444 237.741 9.80285C237.741 13.9696 240.915 14.7276 244.468 16.1947C249.064 18.0408 251.101 21.0717 251.101 25.5708C251.101 30.5422 247.5 33.6676 241.342 33.6676C235.514 33.6676 233.288 28.7428 233.288 24.0081L233.286 24.007Z" fill="#231F20"/>
</g>
<defs>
<clipPath id="clip0_74_258">
<rect width="252" height="42" fill="white"/>
</clipPath>
</defs>
</svg>
