<svg width="223" height="35" viewBox="0 0 223 35" fill="none" xmlns="http://www.w3.org/2000/svg">
<g clip-path="url(#clip0_74_281)">
<path d="M6.17056 32.2296C6.17056 33.5418 6.17056 33.5908 4.37333 33.5908H0.971598C0.0969317 33.5908 0.145968 33.4938 0.0969317 32.3756L0 1.65335C0.0490361 0.535143 -0.145968 0.340027 1.16546 0.340027C3.59446 0.340027 7.14102 0.38795 9.61905 0.534002C13.1166 0.777042 15.8375 2.4304 16.5172 5.10269C16.857 6.36696 17.052 7.63008 17.052 8.89434C17.052 13.8042 13.7483 17.6438 7.33488 18.0329C6.62253 18.0648 6.26635 18.3565 6.26635 18.908L6.16942 32.2273L6.17056 32.2296ZM5.82959 3.79165C5.14993 3.79165 5.10089 3.88863 5.10089 4.42378V4.71474L5.24572 12.8332C5.24572 13.3683 5.24572 13.5132 5.68248 13.5132C9.81291 13.5132 11.658 10.5477 11.658 8.4094C11.658 4.71474 9.81291 3.79165 5.82959 3.79165Z" fill="#231F20"/>
<path d="M31.2391 32.9575L31.0932 21.9238C31.0932 21.0977 31.0453 21.1946 29.9277 21.1456L25.2636 20.9995H24.8747C23.9522 20.9995 23.8541 21.0965 23.8541 21.6796V22.2147L23.4173 32.8605V32.9575C23.4173 33.7357 23.2714 33.8818 22.5427 33.8818H21.7649C21.2312 33.8818 20.6485 33.8338 20.1137 33.8338C19.239 33.7859 19.093 33.6878 19.093 33.2508V32.7156L18.9961 3.74371V3.54973C18.9961 2.72362 19.19 2.3836 20.0658 2.3836H23.6602C24.438 2.3836 24.5839 2.52965 24.5839 2.86968V16.1399C24.5839 17.2102 24.5839 17.1611 25.9444 17.2102L29.2959 17.3071C29.6358 17.3071 29.8308 17.3551 30.0246 17.3551C30.6074 17.3551 30.7533 17.2581 30.7533 16.5769V16.432L30.4614 3.40368V2.86968C30.4614 2.23754 30.6074 2.18848 31.7249 2.09149L35.4175 1.79939C35.6113 1.79939 35.8063 1.75146 35.9523 1.75146C36.681 1.75146 36.73 1.89752 36.73 2.43266V3.11272L36.827 33.2029V33.2508C36.827 34.0769 36.681 34.126 35.8063 34.126H32.5027C31.2882 34.126 31.2391 33.981 31.2391 33.3478V32.9575Z" fill="#231F20"/>
<path d="M49.6528 35C40.8104 35 38.8672 25.7154 38.8672 19.1043C38.8672 11.521 39.9369 0.778198 49.264 0.778198C59.9527 0.778198 60.0975 11.958 60.0975 18.9583C60.0975 26.2506 59.37 35 49.6528 35ZM54.025 20.6595V13.3683C54.025 10.2088 53.6852 6.56323 51.8868 5.2499C51.352 4.86081 50.4785 4.76382 49.1659 4.76382C47.7575 4.76382 47.2227 5.20084 46.9319 5.73598C45.4255 8.36149 44.8427 13.7574 44.8427 17.306C44.8427 20.3686 45.4255 27.1246 46.738 29.1671C47.1748 29.7992 47.9525 29.8471 49.264 29.8471H50.2846C51.2562 29.8471 51.888 29.7022 52.2768 29.1671C53.0055 28.2428 54.025 25.3754 54.025 20.6595Z" fill="#231F20"/>
<path d="M59.5625 4.08376C59.5625 3.15953 59.7575 2.2855 59.8544 1.41033C60.0004 0.632142 60.6322 0.341179 61.7497 0.292114L76.7137 1.0703C77.5884 1.11936 78.0251 1.11936 78.1221 1.94547C78.17 2.48061 78.219 2.91763 78.219 3.45277C78.219 4.66797 77.4413 4.52192 76.2758 4.56984H73.0212C72.3894 4.56984 72.0975 4.56984 72.0975 5.25104C72.0496 9.91786 71.9036 13.6604 71.9036 17.9872V32.5696C71.9036 33.6878 71.9036 33.7357 70.5432 33.7848L67.5314 33.9309C67.4345 33.9309 67.2885 33.9788 67.1426 33.9788C66.3648 33.9788 66.025 33.7357 66.025 32.7145V15.8957C66.025 13.1732 66.025 10.0137 65.9771 7.2912V5.88203C65.8802 5.2499 65.4913 5.10384 64.9074 5.10384L60.6322 5.00686C59.7575 4.95779 59.5625 4.61891 59.5625 4.08376Z" fill="#231F20"/>
<path d="M88.1314 35C79.2889 35 77.3457 25.7154 77.3457 19.1043C77.3457 11.521 78.4154 0.778198 87.7425 0.778198C98.4312 0.778198 98.576 11.958 98.576 18.9583C98.576 26.2506 97.8473 35 88.1314 35ZM92.5035 20.6595V13.3683C92.5035 10.2088 92.1637 6.56323 90.3653 5.2499C89.8317 4.86081 88.957 4.76382 87.6444 4.76382C86.2361 4.76382 85.7012 5.20084 85.4104 5.73598C83.904 8.36149 83.3213 13.7574 83.3213 17.306C83.3213 20.3686 83.904 27.1246 85.2166 29.1671C85.6533 29.7992 86.4311 29.8471 87.7425 29.8471H88.7631C89.7347 29.8471 90.3665 29.7022 90.7554 29.1671C91.4841 28.2428 92.5035 25.3754 92.5035 20.6595Z" fill="#231F20"/>
<path d="M108.342 34.9019C101.541 34.9019 100.326 26.7846 100.326 20.2704C100.326 18.3752 100.278 15.9927 100.278 14.0974C100.278 11.521 100.424 9.04152 101.202 6.90209C102.562 3.01346 105.914 0.290955 110.578 0.290955C118.06 0.290955 118.983 6.90209 119.518 12.7841V12.9781C119.518 13.6102 119.226 13.7563 118.643 13.8042L114.658 14.0472H114.124C113.735 14.0472 113.735 13.9502 113.735 13.3672C113.638 10.1107 113.541 4.17959 110.723 4.17959C107.516 4.17959 106.302 5.83294 106.059 9.13851C105.865 11.4229 105.767 14.0484 105.767 16.3327C105.767 19.7353 106.059 23.0408 106.837 26.4434C107.225 28.5338 108.586 29.895 110.043 29.9429H110.237C111.307 29.9429 112.229 29.3108 112.861 27.8526C113.395 26.8313 113.444 25.4712 113.639 23.6228C113.007 22.9906 111.55 22.6997 110.189 22.4566C109.412 22.3117 109.315 22.3117 109.315 21.5815V19.102C109.315 18.6159 109.412 18.5189 110.335 18.4219C112.813 18.228 115.145 17.9849 117.671 17.9849H118.644C119.567 17.9849 119.906 18.0819 119.955 19.1511L120.101 33.0055V33.2485C120.101 33.7346 120.005 33.7837 119.324 33.8316L117.526 33.9286H116.992C116.603 33.9286 116.555 33.8316 116.555 33.2474V29.9909C114.272 31.9842 112.231 34.9007 108.344 34.9007L108.342 34.9019Z" fill="#231F20"/>
<path d="M135.21 33.2497C135.161 29.7501 134.821 25.3263 133.267 20.7086C132.586 19.9795 130.351 19.7353 128.942 19.6383C128.602 19.6383 128.261 19.5904 128.068 19.5904C127.533 19.5904 127.436 19.6383 127.436 19.9304C127.436 20.0753 127.436 20.3195 127.484 20.6595L127.63 21.6317C128.261 25.1803 128.165 29.7011 128.214 32.4715V33.1527C128.214 34.0278 128.019 33.9788 126.318 34.0278C125.249 34.0758 124.91 34.1248 123.889 34.1248C122.578 34.1248 122.383 33.9309 122.383 33.1527V1.65335C122.383 0.292104 122.48 0.292104 124.327 0.146052C125.541 0.0490644 126.124 0 127.339 0C129.72 0 132.003 0.193975 134.044 0.583067C139.242 1.60429 140.603 4.27773 140.603 8.45733V8.50639C140.603 10.7907 140.554 13.3672 138.902 14.6794C136.91 16.2837 133.122 16.7697 132.587 17.1588C133.511 17.1588 135.502 17.84 137.251 18.471C138.175 18.811 138.659 19.2971 139.048 20.0262C139.875 21.6785 139.875 23.0408 140.263 25.1301C140.796 28.0956 140.749 30.2339 140.942 32.7624V33.2964C140.942 34.3177 140.749 34.3667 139.534 34.3667H136.667C135.211 34.3667 135.211 34.3188 135.211 33.2485L135.21 33.2497ZM129.769 14.3884C131.274 14.3884 132.879 14.3405 134.19 13.2223C134.53 11.764 134.724 10.0628 134.724 8.4094C134.724 7.43724 134.676 6.46508 134.335 5.34687C134.092 4.4717 133.557 4.37471 132.392 4.27773C131.955 4.2298 131.663 4.2298 131.275 4.2298C130.79 4.2298 129.77 4.2298 129.332 4.27773C128.263 4.32565 128.167 4.4717 128.167 5.00685V5.83295C128.07 7.92332 128.07 13.0272 128.07 13.0272V13.8533C128.07 14.1933 128.216 14.3884 128.945 14.3884H129.771H129.769Z" fill="#231F20"/>
<path d="M156.973 32.4715C156.682 29.6029 156.341 26.7846 155.953 24.013C155.905 23.673 155.905 23.576 155.661 23.576C155.515 23.576 155.37 23.6239 155.175 23.6239C153.717 23.77 152.162 23.916 150.803 24.013C150.073 24.0621 149.976 24.0621 149.928 24.5972L148.228 33.6867C148.179 34.1237 148.179 34.1728 147.498 34.1728C145.799 34.2207 144.098 34.3188 142.397 34.3188C142.056 34.3188 141.911 34.2698 141.911 34.0758C141.911 33.9788 141.911 33.8818 142.008 33.7358C142.737 30.2362 143.319 26.8816 143.902 23.333C144.534 20.2704 145.068 17.1588 145.652 14.0975C146.283 11.0349 147.595 4.76382 148.177 1.9934C148.42 0.827263 148.274 0.778198 149.343 0.778198H156.825C157.749 0.778198 157.798 0.826122 157.943 1.70243L162.412 32.6187V32.9096C162.412 33.1036 162.266 33.1036 161.78 33.1036H157.797C156.97 33.1036 157.019 33.0557 156.97 32.4715H156.973ZM152.358 5.44388C151.969 5.44388 151.872 5.83297 151.823 6.12393L149.88 17.937V18.1801C149.88 18.3752 150.026 18.3752 150.561 18.3752H153.574C154.107 18.3752 154.205 18.3752 154.205 18.1801C154.205 18.0831 154.156 17.9861 154.156 17.84L153.525 6.02694C153.476 5.68692 153.379 5.39481 153.087 5.39481L152.358 5.44388Z" fill="#231F20"/>
<path d="M170.141 32.2296C170.141 33.5418 170.141 33.5908 168.344 33.5908H164.943C164.069 33.5908 164.118 33.4939 164.069 32.3756L163.972 1.65337C164.02 0.535162 163.826 0.341187 165.137 0.341187C167.566 0.341187 171.113 0.38911 173.59 0.535162C177.087 0.778202 179.808 2.43156 180.489 5.10385C180.829 6.36812 181.024 7.63124 181.024 8.8955C181.024 13.8054 177.72 17.6449 171.307 18.034C170.593 18.066 170.237 18.3577 170.237 18.9092L170.14 32.2285L170.141 32.2296ZM169.801 3.79167C169.12 3.79167 169.071 3.88865 169.071 4.4238V4.71476L169.217 12.8332C169.217 13.3683 169.217 13.5133 169.655 13.5133C173.785 13.5133 175.631 10.5477 175.631 8.40942C175.631 4.71476 173.785 3.79167 169.801 3.79167Z" fill="#231F20"/>
<path d="M195.21 32.9575L195.064 21.9238C195.064 21.0977 195.016 21.1946 193.899 21.1456L189.234 20.9995H188.846C187.922 20.9995 187.825 21.0965 187.825 21.6796V22.2147L187.388 32.8605V32.9575C187.388 33.7357 187.242 33.8818 186.512 33.8818H185.735C185.2 33.8818 184.618 33.8338 184.083 33.8338C183.209 33.7859 183.063 33.6878 183.063 33.2508V32.7156L182.966 3.74371V3.54973C182.966 2.72362 183.16 2.3836 184.034 2.3836H187.63C188.408 2.3836 188.553 2.52965 188.553 2.86968V16.1399C188.553 17.2102 188.553 17.1611 189.913 17.2102L193.265 17.3071C193.606 17.3071 193.799 17.3551 193.993 17.3551C194.577 17.3551 194.723 17.2581 194.723 16.5769V16.432L194.431 3.40368V2.86968C194.431 2.23754 194.577 2.18848 195.694 2.09149L199.386 1.79939C199.58 1.79939 199.775 1.75146 199.921 1.75146C200.65 1.75146 200.699 1.89752 200.699 2.43266V3.11272L200.796 33.2029V33.2508C200.796 34.0769 200.65 34.126 199.775 34.126H196.471C195.258 34.126 195.209 33.981 195.209 33.3478V32.9587L195.21 32.9575Z" fill="#231F20"/>
<path d="M206.53 3.74259H206.725C207.696 3.74259 208.181 3.88864 208.522 4.76381L212.116 13.6593C212.359 14.0484 212.505 14.1944 212.651 14.1944C212.797 14.1944 212.845 14.0005 213.04 13.5132L216.392 2.72136C216.635 1.99224 216.731 1.89526 218.043 1.89526L222.026 1.84619C222.659 1.89526 222.999 2.08923 222.999 2.38134C222.999 2.47832 222.999 2.57531 222.95 2.67344C220.035 9.86764 218.675 13.6102 215.808 19.1032C215.468 19.6862 215.322 20.2214 215.322 21.0965C215.322 25.5682 215.663 28.8738 215.857 33.2976V33.8807C215.857 34.3188 215.76 34.4158 214.691 34.4158H210.513C209.397 34.4158 209.154 34.3679 209.154 33.8807C209.154 33.7346 209.203 33.5897 209.203 33.3455C209.397 30.1369 209.59 25.7622 209.59 22.1657C209.59 19.9304 208.522 18.034 207.55 15.7006L202.594 5.34573C202.449 5.15176 202.061 4.7136 202.061 4.32451C202.061 3.93542 202.497 3.78937 203.469 3.78937L206.53 3.74259Z" fill="#231F20"/>
</g>
<defs>
<clipPath id="clip0_74_281">
<rect width="223" height="35" fill="white"/>
</clipPath>
</defs>
</svg>
