<svg width="143" height="35" viewBox="0 0 143 35" fill="none" xmlns="http://www.w3.org/2000/svg">
<g clip-path="url(#clip0_74_301)">
<path d="M14.9125 19.2139C14.9125 18.8275 15.0088 18.7799 15.5877 18.7799C16.409 18.7799 17.1804 18.7799 18.0493 18.8275C19.0156 18.8751 19.1595 18.8751 19.1595 19.5516C19.1595 26.9863 18.5795 34.0821 9.36281 34.3722H9.02409C3.13679 34.3722 0.578874 29.4962 0.241292 26.3585C0.0475787 24.4752 0 22.593 0 20.7108C0 18.0071 0.143869 15.207 0.19258 12.4557C0.386294 6.56555 3.18551 0 11.2931 0C15.7814 0 19.5458 2.84877 19.5458 7.62732V8.78541C19.5458 9.75087 19.5934 10.8126 19.5934 11.7792C19.5934 12.7934 19.2071 12.6484 17.9043 12.7447C16.7466 12.7934 15.4914 12.8897 14.2861 12.8897C13.4648 12.8897 13.4648 12.7447 13.4648 11.9719C13.3685 9.0755 13.7061 4.29695 10.6168 4.29695C8.15521 4.29695 6.70746 4.77968 6.07988 5.50377C5.59729 6.95195 5.54858 9.89704 5.54858 12.0693V19.6003C5.54858 23.2695 5.93487 28.1455 9.69926 28.1455C14.3325 28.1455 15.0088 25.2004 15.0088 22.159C15.0088 21.1448 14.9125 20.1794 14.9125 19.2139Z" fill="#231F20"/>
<path d="M31.7067 34.566C22.5852 34.566 21.3799 24.9103 21.3799 19.0213C21.3799 12.0217 21.9588 0.676483 32.818 0.676483C41.6982 0.676483 42.4221 10.2358 42.4221 18.2972C42.4221 25.7318 42.0834 34.566 31.7067 34.566ZM27.5572 27.6628C28.0873 29.256 29.0525 29.4973 30.549 29.4973C31.129 29.4973 31.7067 29.4973 32.4317 29.4498C35.3759 29.2571 35.5685 28.388 35.7124 26.8911C36.0024 23.2219 36.1474 20.6145 36.1474 17.6705C36.1474 15.3056 36.0987 12.3118 35.9061 9.17407C35.7611 6.85675 35.5674 4.87712 32.528 4.87712H32.4317C29.8251 4.87712 29.0049 4.87712 28.1848 7.62844C27.1709 11.0563 26.8333 17.1391 26.8333 18.9249C26.8333 20.1805 26.9772 26.167 27.5572 27.6628Z" fill="#231F20"/>
<path d="M45.8488 33.6481C45.4149 33.6481 44.5947 33.5031 44.5947 32.9241V1.97965C44.5947 1.54451 44.691 1.49692 45.4636 1.49692H48.6491C49.9043 1.49692 49.9043 1.64196 50.1456 2.31733C53.0411 9.41433 55.5027 16.1249 58.6395 23.0757C58.7845 23.4134 59.0258 23.5585 59.2184 23.5585C59.4597 23.5585 59.6047 23.3658 59.6047 22.8831V0.917872C59.6047 0.628916 59.7497 0.531464 60.426 0.531464H64.1416C64.9142 0.531464 65.0105 0.531464 65.0105 0.917872L65.2042 32.8765C65.2042 33.4555 65.0592 33.4555 63.9502 33.4555C62.0199 33.4555 61.4886 33.4079 59.4132 33.4079C58.1105 33.4079 58.2555 33.1666 57.9655 32.4413C56.3727 28.1444 54.925 23.5109 52.9459 19.3102C52.0283 17.3793 51.5956 15.3521 50.533 13.4212C50.3393 13.0835 50.243 12.8897 50.1467 12.8897C50.0504 12.8897 50.0504 15.7861 50.0504 18.3448V21.9165C50.0504 25.4406 50.098 29.0135 50.098 32.3439C50.098 33.0204 49.953 33.068 49.1804 33.213C47.4438 33.5507 46.9612 33.5994 45.851 33.6481H45.8488Z" fill="#231F20"/>
<path d="M78.7143 32.345V32.6351C78.7143 33.3104 78.6667 33.3592 77.6517 33.4079H76.3014C75.1437 33.4079 74.9499 33.3592 73.8885 33.2629C72.9222 33.1665 72.7783 33.1178 72.7783 32.2974V28.6282C72.7783 23.6559 72.972 18.1521 72.972 12.6484C72.972 11.1039 72.972 9.55822 72.9233 8.01372C72.9233 7.33722 72.9233 7.28963 72.0057 7.28963L68.5313 7.24203C67.1323 7.24203 67.036 7.14571 67.036 6.22785V5.98649C67.036 4.87599 66.9873 3.66917 66.9873 2.51108C66.9873 1.4969 67.326 1.4969 68.3388 1.4969C74.3224 1.4969 77.9429 1.44931 83.9752 1.30426C84.4589 1.30426 84.5552 1.35299 84.5552 1.64194V1.83458L84.5065 4.97231C84.5065 5.55135 84.3615 5.60008 83.7339 5.60008H82.0448L79.6806 5.64767C78.5704 5.64767 78.5229 5.69527 78.5229 6.42049C78.5229 15.2546 78.7155 23.4621 78.7155 32.3439L78.7143 32.345Z" fill="#231F20"/>
<path d="M100.772 34.9037C100.385 34.9524 100.095 35 99.9016 35C99.419 35 99.3227 34.8074 99.2264 34.0821L97.2961 22.9307C97.1987 22.0616 97.1024 21.9165 96.0896 21.9165H95.7033L91.4564 22.0128C90.3473 22.0128 90.3938 22.1091 90.3473 22.882C90.0573 25.9721 89.7198 29.0135 89.4773 32.1025C89.4298 33.1643 89.4773 33.3569 87.982 33.4056L84.5076 33.502H84.17C83.5425 33.502 83.3975 33.4056 83.3975 33.1643C83.3975 33.0204 83.3975 32.8266 83.445 32.4889C85.0865 22.6406 86.8231 11.5367 88.562 1.97851C88.6583 1.15696 88.8509 1.06064 89.8636 1.06064H91.0701C92.7591 1.06064 96.0896 0.964325 97.6337 0.964325C99.999 0.964325 100.192 1.01192 100.385 2.55755C100.964 7.09474 101.543 11.7294 102.026 16.0263C102.605 21.3363 103.715 28.0945 104.439 33.5496C104.487 33.8396 104.487 34.0323 104.487 34.1773C104.487 34.515 104.294 34.5637 103.521 34.6601L100.77 34.9014L100.772 34.9037ZM91.2162 16.1238V16.5102C91.2162 16.7028 91.2649 16.8003 91.8438 16.8003H95.8008C96.1232 16.8003 96.2845 16.7357 96.2845 16.6065V16.1238L95.4145 6.56442C95.3669 5.93664 94.8356 5.88905 94.4493 5.88905H93.5804C93.0967 5.88905 92.7591 5.93664 92.6628 6.4205C91.9378 9.41319 91.5527 12.696 91.2151 16.1238H91.2162Z" fill="#231F20"/>
<path d="M111.774 27.9041C111.968 28.8696 112.788 29.0622 113.705 29.0622C114.526 29.0622 115.443 29.0146 116.36 29.0146C117.807 29.0146 117.904 28.7733 117.904 26.5047V20.4219C117.904 19.8428 118 19.7465 119.109 19.7465H123.309C124.418 19.7465 124.612 19.7941 124.612 20.3255C124.612 23.6083 124.369 26.601 122.825 29.5948C121.089 32.7325 118.482 34.4708 114.139 34.4708C107.381 34.4708 105.162 26.3608 105.162 21.7737V17.4768C105.162 11.3939 107.092 0.58017 115.875 0.58017C121.715 0.58017 124.032 5.2624 124.032 9.7044C124.032 9.99335 123.983 10.2834 123.983 10.5735C123.887 11.2013 124.128 11.3951 123.21 11.539C122.341 11.684 120.797 11.8767 119.688 12.0217C119.108 12.0693 118.771 12.2144 118.578 12.2144C118.289 12.2144 118.289 11.973 118.241 11.2002V9.99335C118.241 7.72476 118.048 4.73095 115.634 4.73095C111.194 4.73095 111.098 12.5033 111.098 18.151V18.7788C111.098 22.3029 111.339 25.3919 111.773 27.903L111.774 27.9041Z" fill="#231F20"/>
<path d="M137.162 32.345V32.6351C137.162 33.3104 137.113 33.3592 136.099 33.4079H134.748C133.59 33.4079 133.397 33.3592 132.335 33.2629C131.369 33.1665 131.226 33.1178 131.226 32.2974V28.6282C131.226 23.6559 131.418 18.1521 131.418 12.6484C131.418 11.1039 131.418 9.55822 131.371 8.01372C131.371 7.33722 131.371 7.28963 130.453 7.28963L126.979 7.24203C125.58 7.24203 125.482 7.14571 125.482 6.22785V5.98649C125.482 4.87599 125.435 3.66917 125.435 2.51108C125.435 1.4969 125.772 1.4969 126.785 1.4969C132.77 1.4969 136.39 1.44931 142.422 1.30426C142.905 1.30426 143.001 1.35299 143.001 1.64194V1.83458L142.954 4.97231C142.954 5.55135 142.809 5.60008 142.181 5.60008H140.492L138.127 5.64767C137.018 5.64767 136.969 5.69527 136.969 6.42049C136.969 15.2546 137.163 23.4621 137.163 32.3439L137.162 32.345Z" fill="#231F20"/>
</g>
<defs>
<clipPath id="clip0_74_301">
<rect width="143" height="35" fill="white"/>
</clipPath>
</defs>
</svg>
