<svg width="140" height="35" viewBox="0 0 140 35" fill="none" xmlns="http://www.w3.org/2000/svg">
<g clip-path="url(#clip0_74_205)">
<path d="M13.028 33.7694C12.9793 30.2255 12.633 25.7456 11.0542 21.0682C10.3638 20.3298 8.09352 20.0837 6.66184 19.9855C6.31667 19.9855 5.97033 19.9369 5.77342 19.9369C5.23017 19.9369 5.13171 19.9855 5.13171 20.2813C5.13171 20.4292 5.13171 20.6753 5.18036 21.0196L5.32862 22.0041C5.97033 25.5977 5.87187 30.1758 5.92052 32.9813V33.67C5.92052 34.5563 5.72361 34.5077 3.9954 34.5563C2.91006 34.6048 2.56488 34.6545 1.52818 34.6545C0.196119 34.6545 -0.00195312 34.4569 -0.00195312 33.6689V1.77136C0.000363509 0.394013 0.0988205 0.394013 1.97414 0.246109C3.20774 0.147892 3.8008 0.0982056 5.03441 0.0982056C7.45182 0.0982056 9.77193 0.29464 11.8442 0.688664C17.1249 1.72283 18.5056 4.43016 18.5056 8.6639V8.71243C18.5056 11.0257 18.457 13.6349 16.7786 14.9648C14.755 16.5895 10.9071 17.0817 10.3638 17.4746C11.3021 17.4746 13.3245 18.1644 15.1013 18.8034C16.0396 19.1477 16.5319 19.64 16.9269 20.3783C17.7655 22.0526 17.7655 23.43 18.1605 25.5469C18.7037 28.55 18.6539 30.7166 18.852 33.2748V33.8168C18.852 34.8509 18.6551 34.9006 17.4203 34.9006H14.5094C13.0291 34.9006 13.0291 34.8509 13.0291 33.7682L13.028 33.7694ZM7.50162 14.669C9.03176 14.669 10.6604 14.6205 11.9924 13.4881C12.3376 12.0114 12.5357 10.2885 12.5357 8.61422C12.5357 7.62973 12.487 6.64525 12.1407 5.51286C11.894 4.6266 11.3507 4.52722 10.1669 4.42901C9.72328 4.38048 9.42675 4.38048 9.03176 4.38048C8.53832 4.38048 7.50162 4.38048 7.05799 4.42901C5.97149 4.47754 5.87419 4.62544 5.87419 5.16737V6.00395C5.77573 8.12082 5.77573 13.2894 5.77573 13.2894V14.1259C5.77573 14.4703 5.92284 14.6679 6.66416 14.6679H7.50278L7.50162 14.669Z" fill="#231F20"/>
<path d="M35.5302 33.8191L22.0578 33.7706C20.9725 33.7706 20.874 33.722 20.874 32.5897V2.50976C20.874 1.82109 20.9238 1.7714 22.1076 1.72171L34.2468 1.42706H34.5422C35.4306 1.42706 35.3819 1.57497 35.4306 2.31333C35.5291 3.29781 35.5789 3.98764 35.5789 5.31646C35.5789 5.90808 35.5302 5.90808 34.8387 5.90808H27.1405C26.1536 5.90808 26.1536 6.0063 26.1536 6.69613V14.0312C26.1536 14.3756 26.2521 14.4252 26.9923 14.4252L34.4437 14.4738C35.2337 14.4738 35.3819 14.4738 35.3819 14.8181V15.2121L35.1352 18.3632C35.0696 18.7899 34.7568 19.0195 34.197 19.0519L27.8309 19.2483C27.1405 19.2483 27.0907 19.298 27.0907 19.692V19.8884L27.1394 27.9122C27.1394 28.6506 27.1394 28.7003 28.1262 28.7003L35.8731 28.7499C36.7129 28.7499 36.7615 28.8482 36.7615 29.2907V32.934C36.7615 33.8203 36.7129 33.8203 35.5279 33.8203L35.5302 33.8191Z" fill="#231F20"/>
<path d="M41.6995 2.11686C44.0184 2.16539 43.7717 2.46119 44.0184 3.98761C44.9555 10.0921 46.042 18.3123 46.8308 24.4665C47.0277 26.0911 47.0277 25.9432 47.3741 24.515L52.5066 2.36298C52.5066 1.72283 53.2467 1.37734 53.8386 1.37734L57.1445 1.23059H57.5395C58.231 1.23059 58.4777 1.32881 58.4777 1.72283C58.4777 1.82105 58.4291 1.87074 58.4291 2.01864C56.0105 12.1096 53.8896 23.9731 50.4842 33.8191C50.1888 34.755 50.2374 34.8532 48.5602 34.8532H44.7609C43.4289 34.8047 43.2308 34.7065 43.0339 33.8191L38.1979 3.59358C38.0994 3.34746 38.0508 3.15103 38.0508 2.95344C38.0508 2.51088 38.396 2.16539 39.9261 2.11686H41.703H41.6995Z" fill="#231F20"/>
<path d="M63.8559 2.36298C65.3849 2.41151 65.5332 2.55941 65.5332 3.44568V32.5388C65.5332 34.064 65.2865 33.9658 63.5096 34.1634L61.6343 34.3598C61.1906 34.4084 60.7957 34.4581 60.4991 34.4581C59.8574 34.4581 59.8574 34.1634 59.8574 33.1292V3.19956C59.8574 2.50973 60.0543 2.31329 61.1895 2.31329H61.6331L63.8536 2.36298H63.8559Z" fill="#231F20"/>
<path d="M82.6572 33.8191L69.1848 33.7706C68.0994 33.7706 68.001 33.722 68.001 32.5897V2.50976C68.001 1.82109 68.0508 1.7714 69.2346 1.72171L81.3737 1.42706H81.6691C82.5576 1.42706 82.5089 1.57497 82.5575 2.31333C82.656 3.29781 82.7058 3.98764 82.7058 5.31646C82.7058 5.90808 82.6572 5.90808 81.9656 5.90808H74.2675C73.2806 5.90808 73.2806 6.0063 73.2806 6.69613V14.0312C73.2806 14.3756 73.379 14.4252 74.1192 14.4252L81.5707 14.4738C82.3606 14.4738 82.5089 14.4738 82.5089 14.8181V15.2121L82.2622 18.3632C82.1965 18.7899 81.8838 19.0195 81.3239 19.0519L74.9578 19.2483C74.2675 19.2483 74.2177 19.298 74.2177 19.692V19.8884L74.2663 27.9122C74.2663 28.6506 74.2663 28.7003 75.2532 28.7003L83 28.7499C83.8398 28.7499 83.8884 28.8482 83.8884 29.2907V32.934C83.8884 33.8203 83.8398 33.8203 82.6548 33.8203L82.6572 33.8191Z" fill="#231F20"/>
<path d="M118.829 2.21506C118.829 2.75699 118.632 3.29776 118.483 3.79C116.115 13.6845 113.499 23.5294 112.414 33.5233C112.364 34.4095 112.019 34.3113 111.082 34.458C110.045 34.6556 109.008 34.8024 108.021 34.8024C107.281 34.8024 106.64 34.7539 105.949 34.5563C105.109 34.3101 105.011 34.1622 104.913 33.3257C104.123 27.8613 102.939 22.3484 101.655 16.9326C101.458 16.1943 101.31 15.2583 101.26 15.2583C101.112 15.2583 100.965 16.2428 100.817 16.9812C99.8785 22.2479 99.2379 27.4176 98.1028 32.734C97.9059 33.6203 97.8561 33.7682 96.5727 33.8664C95.9309 33.915 95.2406 33.915 94.5989 33.915C93.5622 33.915 92.6251 33.915 91.6382 33.8664C90.1081 33.8167 90.3062 33.4724 90.1081 32.4382L85.0254 3.64095V3.49304C85.0254 2.95111 85.3706 2.70499 86.3077 2.60678H89.2197C90.5517 2.60678 90.4035 2.8529 90.5517 3.68948C91.49 9.10529 92.4757 17.2273 93.3641 22.7898C93.4626 23.3803 93.956 24.6109 94.0545 24.6109C94.1529 24.6109 94.4993 23.3318 94.746 22.6419C96.0282 18.3597 97.4599 8.66158 98.8916 4.13203C99.187 3.19723 99.385 3.19723 100.619 3.0008C101.309 2.90258 102.247 2.70499 103.036 2.70499C103.579 2.70499 103.579 2.90143 103.678 3.39482C105.208 9.59753 106.442 17.4249 108.07 23.43C108.267 24.0216 108.365 24.2677 108.365 24.2677C108.464 24.2677 108.562 23.9719 108.76 23.3318C110.241 17.1787 111.623 8.80948 112.955 2.55709C113.152 1.62229 113.103 1.27795 114.781 1.27795C115.818 1.27795 116.903 1.42586 117.347 1.42586C118.581 1.52407 118.827 1.42586 118.827 2.21391L118.829 2.21506Z" fill="#231F20"/>
<path d="M120.509 24.9576V23.8749C120.557 22.7425 120.557 22.694 121.989 22.5946L125.838 22.3485C126.233 22.2999 126.48 22.2999 126.776 22.2999C127.516 22.2999 127.566 22.4964 127.566 23.4312V29.1913C127.566 29.6836 127.616 29.9794 128.011 30.1758C128.553 30.4705 129.096 30.5698 129.64 30.5698C130.627 30.5698 131.86 30.4716 132.847 30.2255C133.834 29.9794 133.934 28.9949 133.934 28.1086C133.934 24.7611 132.502 21.9059 129.246 20.6753C127.962 20.1831 126.68 19.7405 125.594 19.1501C121.646 17.0332 119.327 13.9318 119.327 9.89568C119.327 8.66507 119.524 7.38478 119.969 5.95775C121.251 2.16656 124.903 0.00115967 130.233 0.00115967C138.276 0.00115967 140.003 5.66194 140.003 11.0281C140.003 11.8161 139.954 12.5048 139.806 13.2917C139.758 13.7342 139.411 13.8336 138.968 13.8336C138.672 13.8336 138.424 13.7851 138.079 13.7851L136.155 13.5875C134.527 13.4893 134.527 13.6372 134.527 12.1605C134.428 9.45312 133.638 3.84088 129.789 3.84088C126.286 3.84088 125.151 7.92671 125.151 10.1915C125.151 14.5234 128.457 15.3115 132.158 16.8367C136.945 18.7572 139.067 21.9071 139.067 26.5834C139.067 31.7531 135.317 35.0012 128.902 35.0012C122.832 35.0012 120.513 29.8812 120.513 24.9587L120.509 24.9576Z" fill="#231F20"/>
</g>
<defs>
<clipPath id="clip0_74_205">
<rect width="140" height="35" fill="white"/>
</clipPath>
</defs>
</svg>
